<svg xmlns="http://www.w3.org/2000/svg" xmlns:xlink="http://www.w3.org/1999/xlink" width="21" height="24" viewBox="0 0 21 24">
    <defs>
        <path id="a" d="M10.5 24H0V0h21v24z"/>
    </defs>
    <g fill="none" fill-rule="evenodd">
        <mask id="b" fill="#fff">
            <use xlink:href="#a"/>
        </mask>
        <path fill="#4E2B6C" d="M17.84 6.593c0 .704-.316 1.39-.947 2.058l-.098.1-5.517 5.878c-1.173 1.246-2.171 2.21-2.996 2.89-.824.68-1.406 1.02-1.745 1.02-.357 0-.8-.17-1.33-.51-.53-.34-.872-.69-1.027-1.052-.131-.301-.254-.94-.37-1.914a26.892 26.892 0 0 1-.175-3.17c0-.62.256-1.193.768-1.72.512-.527 1.077-.79 1.696-.79.59 0 .94.545 1.054 1.634.012.127.02.22.027.28.095.837.205 1.421.33 1.752.125.331.295.497.509.497.09 0 .256-.098.5-.294.244-.195.536-.462.875-.799l5.669-5.68c.476-.481.902-.845 1.277-1.092.375-.247.693-.37.955-.37.196 0 .336.075.42.225.083.15.125.404.125.759v.298zM21 4.503v-.525h-.469c-.098-.001-.183-.002-.27 0a7.903 7.903 0 0 1-2.155-.227c-2.47-.62-4.757-1.738-6.992-3.418l-.167-.126L10.674 0l-.263.18c-.04.028-.075.051-.109.076a24.418 24.418 0 0 1-4.996 2.713c-1.01.41-2.223.845-3.553.97-.145.013-.302.02-.494.02-.143 0-.285-.004-.436-.008a19.614 19.614 0 0 0-.471-.007H.045l-.014.284-.008.129a3.723 3.723 0 0 0-.009.204c-.003.446-.006.927-.007 1.417L.004 7.635C.001 9.232 0 10.883.001 12.508c.001 1.326.263 2.5.8 3.59.74 1.506 1.892 2.846 3.625 4.22 1.644 1.302 3.51 2.334 5.316 3.331l.502.278a.66.66 0 0 0 .314.073.69.69 0 0 0 .32-.074l.615-.337c.91-.498 1.852-1.013 2.762-1.548 1.971-1.16 3.408-2.308 4.52-3.613 1.447-1.696 2.19-3.57 2.209-5.569.017-1.85.016-3.729.015-5.546L21 4.937v-.435z" mask="url(#b)"/>
    </g>
</svg>
