<svg xmlns="http://www.w3.org/2000/svg" width="15" height="20" viewBox="0 0 15 20">
    <g fill="none" fill-rule="evenodd">
        <path fill="#242C6C" d="M1.858 17.042h10.99V2.147H1.858v14.895zm5.495 1.701a.638.638 0 1 1-.002-1.275.638.638 0 0 1 .002 1.275zm0-17.948a.244.244 0 1 1 .001.488.244.244 0 0 1-.001-.488zM13.379 0H1.326a.775.775 0 0 0-.775.773v17.649c0 .426.348.772.775.772H13.38a.775.775 0 0 0 .776-.772V.772A.775.775 0 0 0 13.379 0z"/>
        <path fill="#74B943" d="M12.548 3.978c.11-.413-.072-.772-.447-.977-.382-.209-.892-.214-1.317-.194a9.579 9.579 0 0 0-2.341.421c-1.518.465-2.935 1.297-4.185 2.257-.913.701-2.057 1.776-2.09 3.012-.025.966.913 1.572 1.71 1.875 1.375.524 2.893.4 4.273.91.205.076.406.17.594.286.039.022.24.178.146.098a1.244 1.244 0 0 1 .292.371c.015.03.025.06.037.092-.052-.142-.015-.045-.009-.009a.739.739 0 0 1 .016.189c0 .032-.004.064-.008.096.026-.2.007-.048-.008.002a1.488 1.488 0 0 1-.072.198c.113-.254-.006-.006-.045.053-.152.236.11-.128-.033.047-.062.073-.337.352-.059.08-.07.07-.145.135-.22.2-.074.063-.387.305-.055.053-.197.15-.404.286-.616.417-.261.162.171-.095-.006.004-.092.054-.183.102-.274.152a11.291 11.291 0 0 1-.875.425c.3-.134-.056.02-.122.046-.208.085-.42.162-.63.237-.193.066-.386.126-.58.185-.052.016-.408.113-.158.047l-.321.08c-.415.097-.834.169-1.257.214-.493.05-1.047.466-1.304.876-.248.392-.03.622.39.578 2.362-.248 4.757-1.245 6.628-2.69.698-.537 1.475-1.32 1.55-2.246.066-.827-.835-1.305-1.492-1.538-1.392-.491-2.915-.372-4.29-.92-.465-.184-.802-.378-1.073-.754a1.222 1.222 0 0 1-.127-.223c-.02-.038-.033-.076-.048-.113.048.125.005.003 0-.024a1.083 1.083 0 0 1-.027-.232c-.003-.039.001-.078.003-.117.009-.174-.022.074.001-.034a1.52 1.52 0 0 1 .085-.274c.014-.034.1-.204.011-.032.027-.055.062-.108.093-.16.035-.056.07-.109.109-.162.13-.187-.129.158.02-.026.106-.13.222-.253.341-.373-.195.198-.007.01.029-.023a6.52 6.52 0 0 1 .366-.312c.042-.035.267-.206.025-.022.296-.223.606-.426.922-.619-.251.154 0 .002.046-.025.075-.042.15-.084.227-.125a14.362 14.362 0 0 1 .686-.342c.038-.017.296-.13.054-.028a10.28 10.28 0 0 1 .947-.346c.039-.011.274-.074.043-.014a9.572 9.572 0 0 1 1.418-.24c-.138.013.133-.002.159-.002.08-.001.164.001.246.005a2.59 2.59 0 0 1 .307.035c.154.025-.13-.035.009.003.09.023.175.058.257.103.033.018.062.04.092.061-.14-.104-.037-.025-.003.014.032.04.058.086.078.136-.032-.078-.015-.096-.007.021.013.159-.003.052.017-.025-.129.477.402.445.71.337.424-.149 1.034-.524 1.162-.995"/>
    </g>
</svg>
