<svg xmlns="http://www.w3.org/2000/svg" xmlns:xlink="http://www.w3.org/1999/xlink" width="21" height="15" viewBox="0 0 21 15">
    <defs>
        <path id="a" d="M.041 14.4V.582h19.224V14.4z"/>
    </defs>
    <g fill="none" fill-rule="evenodd" transform="translate(.837 .2)">
        <mask id="b" fill="#fff">
            <use xlink:href="#a"/>
        </mask>
        <path fill="#AF2A30" d="M19.265 3.843l-5.89 3.484a4.828 4.828 0 0 0-.277-1.194l6.01-3.553A2.995 2.995 0 0 0 14.869.937l-.002-.003-.033.02-.052.03-4.943 2.918h-.006l-.302.183L1.558 8.79l.002.003A2.982 2.982 0 0 0 .01 11.163a2.99 2.99 0 0 0 2.734 3.227c.68.057 1.322-.12 1.856-.458v.002l5.672-3.349a2.254 2.254 0 0 1-.1-.891c.014-.169.017-.329.014-.483l-6.042 3.573c-.349.292-.809.45-1.299.41a1.789 1.789 0 0 1-1.636-1.93 1.791 1.791 0 0 1 1.937-1.631 1.79 1.79 0 0 1 1.607 1.435l5.213-3.082c-.682-1.8-2.705-2.052-2.705-2.052l.581-.35c1.075.22 3.062 1.044 2.913 4.141-.088 1.855 2.61 2.628 2.61 2.628l.167-1.569 2.487-.031s-2.092-.615-2.528-2.068l4.242-2.505.033-.019.144-.085-.002-.003a2.978 2.978 0 0 0 1.356-2.23" mask="url(#b)"/>
    </g>
</svg>
