<svg xmlns="http://www.w3.org/2000/svg" width="35" height="30" viewBox="0 0 35 30">
    <g fill="none" fill-rule="evenodd">
        <path fill="#D2292D" d="M20.922 15.922c2.717-2.587 6.09-5.8 6.553-8.66.325-2.02.008-3.687-.945-4.953C25.568 1.032 24.107.303 22.06.081a5.423 5.423 0 0 0-.556-.03c-1.45 0-2.91.546-4.034 1.469C16.347.597 14.884.05 13.438.05c-.18 0-.359.01-.557.03-2.048.222-3.511.95-4.472 2.228-.953 1.266-1.27 2.933-.945 4.954.464 2.86 3.836 6.072 6.553 8.659 0 0 1.356 1.378 1.763 1.73.307.267.97.802 1.69.802s1.384-.535 1.69-.801c.406-.353 1.762-1.731 1.762-1.731z"/>
        <path fill="#DEC8AE" d="M12.674 20.374c-.148-.115-1.32-1.013-4.572-1.232-.179-.015-.36-.143-.518-.25a13.986 13.986 0 0 1-.117-.08 2.207 2.207 0 0 1-.449-.384c-.248-.301-.53-.554-.766-.889-1.58-2.231-3.13-2.678-3.362-2.767-.308-.15-.518-.194-.587-.407-.028-.1-.296-2.69-.344-3.125-.133-1.25-.265-2.175-.972-2.427-.182-.065-.312-.044-.447.102-.161.171-.256 1.078-.302 1.652 0 0-.267 3.353-.235 4.515.03 1.162 2.018 5.806 3.082 6.89 1.065 1.083 5.992 3.918 5.992 3.918.177.15 1.162.916 1.162 1.922v1.134s-.14 1.049.995 1.049 2.71.004 3.832.004c1.121 0 .902-1.025.903-1.384l.002-.556v-.061c.013-.37.075-.739.119-1.107.124-.42.025-1.217-.033-1.526-.666-3.006-3.116-4.78-3.383-4.991zM34.702 10.567c-.047-.574-.142-1.48-.303-1.652-.135-.146-.264-.167-.447-.102-.707.252-.839 1.177-.972 2.427-.048.435-.316 3.026-.344 3.125-.069.213-.279.257-.586.407-.232.09-1.782.536-3.362 2.767-.237.335-.518.588-.767.889-.124.149-.285.27-.449.384l-.116.08c-.159.107-.34.235-.519.25-3.252.22-4.424 1.117-4.572 1.232-.266.21-2.716 1.985-3.383 4.991-.058.309-.157 1.105-.033 1.526.044.368.106.736.12 1.107v.061l.001.556c0 .36-.218 1.384.903 1.384 1.122 0 2.697-.004 3.833-.004 1.135 0 .995-1.05.995-1.05v-1.133c0-1.006.984-1.773 1.161-1.923 0 0 5.314-3.1 5.992-3.918.678-.817 2.953-5.755 3.083-6.889.13-1.134-.235-4.515-.235-4.515z"/>
    </g>
</svg>
