<svg xmlns="http://www.w3.org/2000/svg" width="20" height="20" viewBox="0 0 20 20">
    <g fill="#F15D25" fill-rule="nonzero">
        <path d="M13.111 3.867v-.934c0-.56-.311-.933-.778-.933H7.667c-.467 0-.778.373-.778.933v.934H3v1.866h14V3.867h-3.889zM3.933 6.667l.683 10.48c0 .4.379.72.758.72h9.176c.38 0 .758-.32.758-.72l.759-10.48H3.933zm3.792 8.8c0 .48-.303.8-.758.8s-.759-.32-.759-.8v-6.4c0-.48.304-.8.759-.8s.758.32.758.8v6.4zm3.033 0c0 .48-.303.8-.758.8s-.758-.32-.758-.8v-6.4c0-.48.303-.8.758-.8s.758.32.758.8v6.4zm3.034 0c0 .48-.304.8-.759.8s-.758-.32-.758-.8v-6.4c0-.48.303-.8.758-.8s.759.32.759.8v6.4z"/>
    </g>
</svg>
