<svg xmlns="http://www.w3.org/2000/svg" width="20" height="20" viewBox="0 0 20 20">
    <g fill="none">
        <path fill="#242C6C" d="M19.83 13.593c-.02-.022-.047-.035-.076-.035H.115c-.03 0-.057.013-.076.035-.02.022-.028.052-.024.081.003.018.3 1.837 2.598 1.837h14.642c2.299 0 2.595-1.819 2.598-1.837.004-.03-.004-.059-.023-.08zm-8.419 1.281H8.457v-.68h2.954v.68zM19.377 11.851V1c0-.552-.448-1-1-1H1.733c-.552 0-1 .448-1 1v10.851c0 .553.448 1 1 1h16.644c.552 0 1-.447 1-1zM2.159 1.426h15.792v10H2.159v-10z" transform="translate(0 3)"/>
        <path fill="#74B943" d="M11.802 7.313c.473.267 1.592 1.065 2.034 2.907.092.373.144.756.164 1.15 0 .075-8 .075-8 0 .02-.383.082-.766.164-1.15.442-1.8 1.51-2.608 1.962-2.875.051-.032.123-.032.174.011.483.351 1.058.532 1.644.522.605.01 1.201-.181 1.684-.554.051-.043.123-.043.174-.01zm-1.797-4.887c1.274 0 2.31 1.076 2.31 2.396 0 1.32-1.036 2.396-2.31 2.396-1.273 0-2.31-1.076-2.31-2.396 0-1.32 1.037-2.396 2.31-2.396z" transform="translate(0 3)"/>
    </g>
</svg>
