<svg xmlns="http://www.w3.org/2000/svg" width="20" height="17" viewBox="0 0 20 17">
    <g fill="none" fill-rule="evenodd">
        <path fill="#4F9AC8" d="M13.972 12.696v3.496l2.151-1.108 2.152 1.108v-3.496a4.026 4.026 0 0 1-2.152.621c-.793 0-1.53-.23-2.151-.62"/>
        <path fill="#E0562C" d="M16.123 6.315c-1.772 0-3.21 1.4-3.21 3.127 0 1.727 1.438 3.127 3.21 3.127 1.773 0 3.21-1.4 3.21-3.127 0-1.727-1.437-3.127-3.21-3.127"/>
        <path fill="#242C6C" d="M10.124 4.56H1.88a.417.417 0 0 1-.421-.412c0-.227.188-.411.421-.411h8.244c.233 0 .422.184.422.411a.417.417 0 0 1-.422.411M10.124 6.357H1.88a.417.417 0 0 1-.421-.411c0-.227.188-.411.421-.411h8.244c.233 0 .422.184.422.41a.417.417 0 0 1-.422.412M10.124 8.155H1.88a.417.417 0 0 1-.421-.411c0-.227.188-.411.421-.411h8.244c.233 0 .422.184.422.41a.417.417 0 0 1-.422.412M10.124 9.953H1.88a.417.417 0 0 1-.421-.411c0-.227.188-.412.421-.412h8.244c.233 0 .422.185.422.412a.417.417 0 0 1-.422.41"/>
        <path fill="#242C6C" d="M13.202 12.553H1.541a.523.523 0 0 1-.53-.516V1.652c0-.284.238-.515.53-.515h16.073c.292 0 .53.231.53.515v4.762h.942V1.652c0-.79-.66-1.434-1.472-1.434H1.54C.729.218.068.86.068 1.652v10.385c0 .791.66 1.435 1.473 1.435h11.661v-.92"/>
    </g>
</svg>
