<svg xmlns="http://www.w3.org/2000/svg" width="25" height="20" viewBox="0 0 25 20">
    <path fill="#F1F2F2" fill-rule="nonzero" d="M25 2.368a10.36 10.36 0 0 1-2.946.794A5.078 5.078 0 0 0 24.31.369c-.992.579-2.09.999-3.257 1.225A5.162 5.162 0 0 0 17.308 0c-2.832 0-5.13 2.261-5.13 5.049 0 .396.046.781.134 1.15A14.637 14.637 0 0 1 1.74.925a4.968 4.968 0 0 0-.695 2.538c0 1.752.907 3.298 2.282 4.203a5.154 5.154 0 0 1-2.323-.632v.064c0 2.446 1.768 4.487 4.114 4.95a5.187 5.187 0 0 1-2.316.087c.653 2.006 2.547 3.466 4.792 3.507a10.395 10.395 0 0 1-6.371 2.161c-.413 0-.823-.024-1.223-.07A14.675 14.675 0 0 0 7.862 20c9.434 0 14.593-7.693 14.593-14.366 0-.219-.005-.437-.015-.653A10.313 10.313 0 0 0 25 2.368z"/>
</svg>
