<svg id="Layer_1" data-name="Layer 1" xmlns="http://www.w3.org/2000/svg" viewBox="0 0 36 36"><path id="b" d="M18,2h0A15,15,0,0,1,33,17h0A15,15,0,0,1,18,32h0A15,15,0,0,1,3,17H3A15,15,0,0,1,18,2Z" fill="#277b14" fill-rule="evenodd"/><path id="b-2" data-name="b" d="M18,2h0A15,15,0,0,1,33,17h0A15,15,0,0,1,18,32h0A15,15,0,0,1,3,17H3A15,15,0,0,1,18,2Z" fill="#277b14" fill-rule="evenodd"/><path d="M10.4,18.3a.76.76,0,0,1-.2-.5,1.69,1.69,0,0,1,.2-.5l.9-.9a.56.56,0,0,1,.9,0h0l.1.1,3.6,3.8a.45.45,0,0,0,.5,0l8.7-9.1h.1a.56.56,0,0,1,.9,0h0l.9.9a.56.56,0,0,1,0,.9h0L16.5,24a.76.76,0,0,1-.5.2c-.2,0-.3-.1-.5-.2l-5.1-5.5Z" fill="#fff"/></svg>