<svg xmlns="http://www.w3.org/2000/svg" width="14" height="21" viewBox="0 0 14 21">
    <path fill="#F15D25" fill-rule="evenodd" d="M10.286 6.705c0-.926-.335-1.716-1.005-2.37-.67-.655-1.477-.983-2.424-.983-.946 0-1.754.328-2.424.983-.67.654-1.004 1.444-1.004 2.37 0 .925.334 1.715 1.004 2.37.67.655 1.478.982 2.424.982.947 0 1.755-.327 2.424-.982.67-.655 1.005-1.445 1.005-2.37zm3.428 0c0 .951-.147 1.733-.442 2.344L8.397 19.185a1.603 1.603 0 0 1-.636.68 1.75 1.75 0 0 1-.904.25 1.75 1.75 0 0 1-.904-.25 1.52 1.52 0 0 1-.623-.68L.442 9.049C.147 8.438 0 7.656 0 6.705c0-1.851.67-3.431 2.009-4.74C3.349.654 4.964 0 6.857 0c1.893 0 3.51.655 4.848 1.964 1.34 1.31 2.01 2.89 2.01 4.74z"/>
</svg>
