<?xml version="1.0" encoding="UTF-8"?>
<svg width="50px" height="50px" viewBox="0 0 50 50" version="1.1" xmlns="http://www.w3.org/2000/svg" xmlns:xlink="http://www.w3.org/1999/xlink">
    <!-- Generator: Sketch 61 (89581) - https://sketch.com -->
    <title>American express</title>
    <desc>Created with Sketch.</desc>
    <g id="New-screens---zeplin" stroke="none" stroke-width="1" fill="none" fill-rule="evenodd">
        <g id="American-express">
            <g id="Group-2">
                <circle id="Oval" fill="#F3F3F3" cx="24.5147236" cy="24.5147236" r="24.5147236"></circle>
                <g id="AmericanExpress-dark" transform="translate(7.000000, 18.000000)" fill="#0072CE">
                    <path d="M34.0096077,8.65613588 L32.2784176,8.65613588 C32.1055743,8.65613588 31.990745,8.66258904 31.894015,8.72771824 C31.793809,8.79189141 31.755213,8.8871354 31.755213,9.01285267 C31.755213,9.16235107 31.8398367,9.26404822 31.9629366,9.30802537 C32.0631426,9.34280077 32.1707801,9.35295854 32.3290001,9.35295854 L32.8438142,9.3667014 C33.3633031,9.37948823 33.7100685,9.46851805 33.9215079,9.68565521 C33.9599842,9.7158895 33.9831178,9.74982838 34.0096077,9.78376727 L34.0096077,8.65613588 Z M34.0096077,11.2688325 C33.7788702,11.6052337 33.3292619,11.7757647 32.7205945,11.7757647 L30.8862018,11.7757647 L30.8862018,10.925978 L32.7131629,10.925978 C32.8943967,10.925978 33.0212124,10.9021969 33.0975655,10.827866 C33.1637302,10.7665609 33.2098777,10.6775311 33.2098777,10.5693807 C33.2098777,10.4539407 33.1637302,10.3622818 33.0938497,10.3073104 C33.0249282,10.2468418 32.9246023,10.2193561 32.7591905,10.2193561 C31.8672854,10.1891218 30.7545916,10.2468418 30.7545916,8.99277615 C30.7545916,8.41796617 31.120655,7.8129219 32.1174408,7.8129219 L34.0094878,7.8129219 L34.0094878,7.02444034 L32.2515682,7.02444034 C31.7210518,7.02444034 31.3356903,7.15111365 31.0627609,7.34805478 L31.0627609,7.02444034 L28.4625597,7.02444034 C28.0467528,7.02444034 27.5586682,7.12721302 27.3278109,7.34805478 L27.3278109,7.02444034 L22.6845345,7.02444034 L22.6845345,7.34805478 C22.314995,7.08227985 21.6914645,7.02444034 21.403672,7.02444034 L18.3409171,7.02444034 L18.3409171,7.34805478 C18.0485698,7.06578842 17.3984296,7.02444034 17.0021605,7.02444034 L13.5744209,7.02444034 L12.7900335,7.8707614 L12.0553894,7.02444034 L6.93505586,7.02444034 L6.93505586,12.5540885 L11.9590191,12.5540885 L12.7672594,11.6943831 L13.528633,12.5540885 L16.6254292,12.5568371 L16.6254292,11.2560456 L16.9298827,11.2560456 C17.3407752,11.2623793 17.8253837,11.2458879 18.2529372,11.0616141 L18.2529372,12.553969 L20.8072307,12.553969 L20.8072307,11.1127614 L20.9304505,11.1127614 C21.0877115,11.1127614 21.1031739,11.1192146 21.1031739,11.2758832 L21.1031739,12.5538495 L28.8626644,12.5538495 C29.3553038,12.5538495 29.8702379,12.4281322 30.1553934,12.2000007 L30.1553934,12.5538495 L32.6166727,12.5538495 C33.1288499,12.5538495 33.6290407,12.4822671 34.0096077,12.2989493 L34.0096077,11.2688325 L34.0096077,11.2688325 Z M30.2205992,9.68565521 C30.4055488,9.87650169 30.504676,10.11742 30.504676,10.5252841 C30.504676,11.3778193 29.9704439,11.7757647 29.0124939,11.7757647 L27.1623991,11.7757647 L27.1623991,10.925978 L29.0050624,10.925978 C29.1852174,10.925978 29.312992,10.9021969 29.3930609,10.827866 C29.4583865,10.7665609 29.5052532,10.6775311 29.5052532,10.5693807 C29.5052532,10.4539407 29.4545509,10.3622818 29.3893451,10.3073104 C29.3167077,10.2468418 29.2165018,10.2193561 29.05109,10.2193561 C28.1627808,10.1891218 27.0503267,10.2468418 27.0503267,8.99277615 C27.0503267,8.41796617 27.4125545,7.8129219 28.4083813,7.8129219 L30.3126545,7.8129219 L30.3126545,8.65637488 L28.5701972,8.65637488 C28.3974737,8.65637488 28.2851615,8.66282805 28.1896302,8.72795725 C28.0855886,8.79213042 28.0469926,8.8873744 28.0469926,9.01309168 C28.0469926,9.16259008 28.135332,9.26428723 28.2548361,9.30826437 C28.355042,9.34303978 28.4626795,9.35319754 28.6244954,9.35319754 L29.1358336,9.3669404 C29.6514868,9.37948823 30.005444,9.46839855 30.2205992,9.68565521 L30.2205992,9.68565521 Z M21.6493924,9.44091283 C21.522337,9.51608029 21.3651958,9.52253346 21.1803661,9.52253346 L20.0264392,9.52253346 L20.0264392,8.63247426 L21.1960682,8.63247426 C21.3651958,8.63247426 21.5344432,8.63605935 21.6493924,8.70405662 C21.7724923,8.7682298 21.8460886,8.8909595 21.8460886,9.06053442 C21.8460886,9.23010934 21.7724923,9.3667014 21.6493924,9.44091283 L21.6493924,9.44091283 Z M22.2230596,9.93410219 C22.434499,10.0118987 22.6073423,10.1513588 22.6883701,10.2667989 C22.8224975,10.4602744 22.8419154,10.6408436 22.8457511,10.9901512 L22.8457511,11.7757647 L21.8921162,11.7757647 L21.8921162,11.2799463 C21.8921162,11.0415376 21.91513,10.6885254 21.7385709,10.5042515 C21.5997689,10.3622818 21.3882096,10.328343 21.0416839,10.328343 L20.026559,10.328343 L20.026559,11.7757647 L19.0720851,11.7757647 L19.0720851,7.81280239 L21.2651097,7.81280239 C21.7460025,7.81280239 22.0962439,7.83395444 22.4080092,7.99982477 C22.707788,8.18039397 22.8963335,8.42776542 22.8963335,8.87984571 C22.8962136,9.51237569 22.4730951,9.83515361 22.2230596,9.93410219 L22.2230596,9.93410219 Z M23.4230142,7.81280239 L26.5932867,7.81280239 L26.5932867,8.63235476 L24.3689778,8.63235476 L24.3689778,9.35283904 L26.5389885,9.35283904 L26.5389885,10.1613971 L24.3689778,10.1613971 L24.3689778,10.9498787 L26.5932867,10.9534638 L26.5932867,11.7757647 L23.4230142,11.7757647 L23.4230142,7.81280239 L23.4230142,7.81280239 Z M17.0142667,9.64167806 L15.7867435,9.64167806 L15.7867435,8.63247426 L17.0252942,8.63247426 C17.3682239,8.63247426 17.6062731,8.77181489 17.6062731,9.11837392 C17.6062731,9.46110886 17.3792514,9.64167806 17.0142667,9.64167806 L17.0142667,9.64167806 Z M14.8406601,11.4153433 L13.3822796,9.80109522 L14.8406601,8.23811398 L14.8406601,11.4153433 L14.8406601,11.4153433 Z M11.0744257,10.9498787 L8.73900315,10.9498787 L8.73900315,10.1613971 L10.8243902,10.1613971 L10.8243902,9.35283904 L8.73900315,9.35283904 L8.73900315,8.63235476 L11.1204533,8.63235476 L12.159431,9.78723286 L11.0744257,10.9498787 L11.0744257,10.9498787 Z M18.6260726,9.11837392 C18.6260726,10.2192366 17.8022501,10.4465315 16.9719549,10.4465315 L15.7867435,10.4465315 L15.7867435,11.7757647 L13.9404844,11.7757647 L12.7708553,10.4638595 L11.5553185,11.7757647 L7.79279983,11.7757647 L7.79279983,7.81280239 L11.6132126,7.81280239 L12.7818827,9.11180125 L13.9901079,7.81280239 L17.0252942,7.81280239 C17.7791164,7.81280239 18.6260726,8.02085732 18.6260726,9.11837392 L18.6260726,9.11837392 Z" id="EXPRESS"></path>
                    <path d="M3.26087671,3.24587135 L2.61073651,1.66639868 L1.96431208,3.24587135 L3.26087671,3.24587135 Z M17.5833791,2.61692646 C17.4528476,2.69591802 17.2984633,2.69854708 17.1135138,2.69854708 L15.9595868,2.69854708 L15.9595868,1.81852615 L17.1292159,1.81852615 C17.2947476,1.81852615 17.467471,1.82593534 17.5796633,1.88998901 C17.7028831,1.94770901 17.7791164,2.07055822 17.7791164,2.24025264 C17.7791164,2.41341265 17.7065989,2.55275328 17.5833791,2.61692646 L17.5833791,2.61692646 Z M25.8153719,3.24587135 L25.1580399,1.66639868 L24.5043038,3.24587135 L25.8153719,3.24587135 L25.8153719,3.24587135 Z M10.4704329,4.95548291 L9.49666101,4.95548291 L9.4930651,1.85246503 L8.11571239,4.95548291 L7.28170141,4.95548291 L5.9007528,1.84971646 L5.9007528,4.95548291 L3.96879118,4.95548291 L3.60380649,4.07175738 L1.62605698,4.07175738 L1.25735652,4.95548291 L0.225690457,4.95548291 L1.9266749,0.99347664 L3.33794901,0.99347664 L4.95347071,4.74467942 L4.95347071,0.99347664 L6.5037866,0.99347664 L7.74689207,3.6812212 L8.88883265,0.99347664 L10.4703131,0.99347664 L10.4703131,4.95548291 L10.4704329,4.95548291 Z M14.3514967,4.95548291 L11.1783474,4.95548291 L11.1783474,0.99347664 L14.3514967,0.99347664 L14.3514967,1.81852615 L12.1282665,1.81852615 L12.1282665,2.53267676 L14.2981574,2.53267676 L14.2981574,3.34481993 L12.1282665,3.34481993 L12.1282665,4.13605005 L14.3514967,4.13605005 L14.3514967,4.95548291 L14.3514967,4.95548291 Z M18.8255257,2.06051995 C18.8255257,2.69221342 18.4026469,3.01857643 18.1562073,3.11656898 C18.3640508,3.19544104 18.5415688,3.33478167 18.6260726,3.45022168 C18.7602,3.64728231 18.7833337,3.8233104 18.7833337,4.17715913 L18.7833337,4.95548291 L17.8252639,4.95548291 L17.821668,4.45584039 C17.821668,4.21743168 17.8445619,3.87457724 17.6717186,3.68396977 C17.5329165,3.54462914 17.3213573,3.51439485 16.9793864,3.51439485 L15.9597067,3.51439485 L15.9597067,4.95548291 L15.0099075,4.95548291 L15.0099075,0.99347664 L17.1946614,0.99347664 C17.680109,0.99347664 18.0377821,1.00626347 18.3448726,1.18324759 C18.6453707,1.3602317 18.8255257,1.61859743 18.8255257,2.06051995 L18.8255257,2.06051995 Z M20.3456359,4.95548291 L19.3764188,4.95548291 L19.3764188,0.99347664 L20.3456359,0.99347664 L20.3456359,4.95548291 L20.3456359,4.95548291 Z M31.5898012,4.95548291 L30.2437329,4.95548291 L28.4432616,1.9817674 L28.4432616,4.95548291 L26.5087829,4.95548291 L26.1391235,4.07175738 L24.1659288,4.07175738 L23.8072969,4.95548291 L22.6958017,4.95548291 C22.2340871,4.95548291 21.6495123,4.85366626 21.318449,4.51726499 C20.9846288,4.18086372 20.8109465,3.72519834 20.8109465,3.00471406 C20.8109465,2.41711725 20.9147483,1.87995075 21.3230038,1.45547568 C21.6300944,1.13927044 22.1109871,0.99347664 22.7655623,0.99347664 L23.6851559,0.99347664 L23.6851559,1.84242677 L22.7848603,1.84242677 C22.4382148,1.84242677 22.2424775,1.89381311 22.0539321,2.07713089 C21.8919963,2.24395723 21.7808828,2.55932596 21.7808828,2.97459928 C21.7808828,3.39907434 21.8655065,3.70512182 22.0420656,3.90505053 C22.1882992,4.06183862 22.4540368,4.10940086 22.7040723,4.10940086 L23.1306669,4.10940086 L24.4694235,0.993596143 L25.8926839,0.993596143 L27.500894,4.74109433 L27.500894,0.993596143 L28.9471682,0.993596143 L30.6168683,3.75292307 L30.6168683,0.993596143 L31.5898012,0.993596143 L31.5898012,4.95548291 L31.5898012,4.95548291 Z M0.214663005,5.7336872 L1.83761624,5.7336872 L2.20355984,4.85366626 L3.02282759,4.85366626 L3.38781227,5.7336872 L6.58109863,5.7336872 L6.58109863,5.06088466 L6.86613429,5.73655527 L8.52384797,5.73655527 L8.80888363,5.0508464 L8.80888363,5.7336872 L16.7448133,5.7336872 L16.7410976,4.28913354 L16.8946428,4.28913354 C17.0021605,4.29283814 17.0335648,4.3027569 17.0335648,4.47974101 L17.0335648,5.7336872 L21.1380542,5.7336872 L21.1380542,5.39740543 C21.4691175,5.57427004 21.9840516,5.7336872 22.6616406,5.7336872 L24.3883957,5.7336872 L24.7579352,4.85366626 L25.5772029,4.85366626 L25.9385917,5.7336872 L29.2661253,5.7336872 L29.2661253,4.89776291 L29.7700319,5.7336872 L32.4365177,5.7336872 L32.4365177,0.207863162 L29.7976005,0.207863162 L29.7976005,0.860469673 L29.428061,0.207863162 L26.7202223,0.207863162 L26.7202223,0.860469673 L26.3808884,0.207863162 L22.7232505,0.207863162 C22.1109871,0.207863162 21.5727996,0.293068883 21.1380542,0.530521572 L21.1380542,0.207863162 L18.6139664,0.207863162 L18.6139664,0.530521572 C18.3373212,0.285779193 17.9603502,0.207863162 17.5411871,0.207863162 L8.31972025,0.207863162 L7.70098431,1.63508886 L7.06558733,0.207863162 L4.1610524,0.207863162 L4.1610524,0.860469673 L3.84197548,0.207863162 L1.36487418,0.207863162 L0.214543141,2.83513914 L0.214543141,5.7336872 L0.214663005,5.7336872 Z" id="AMERICAN"></path>
                </g>
            </g>
        </g>
    </g>
</svg>