<?xml version="1.0" encoding="UTF-8"?>
<svg width="50px" height="50px" viewBox="0 0 50 50" version="1.1" xmlns="http://www.w3.org/2000/svg" xmlns:xlink="http://www.w3.org/1999/xlink">
    <!-- Generator: Sketch 61 (89581) - https://sketch.com -->
    <title>Dinners club</title>
    <desc>Created with Sketch.</desc>
    <g id="New-screens---zeplin" stroke="none" stroke-width="1" fill="none" fill-rule="evenodd">
        <g id="Dinners-club">
            <g id="Group-3">
                <circle id="Oval" fill="#F3F3F3" cx="24.5147236" cy="24.5147236" r="24.5147236"></circle>
                <g id="DinersClub-dark" transform="translate(9.000000, 13.000000)">
                    <path d="M0.758453755,14.2016907 C0.758453755,13.6103549 0.449512594,13.6492265 0.153980102,13.6429962 L0.153980102,13.4720695 C0.410234673,13.4845301 0.672990417,13.4845301 0.929922194,13.4845301 C1.20595117,13.4845301 1.5807167,13.4720695 2.06762748,13.4720695 C3.77039305,13.4720695 4.69789374,14.6090976 4.69789374,15.7734848 C4.69789374,16.4250919 4.31649159,18.0620331 1.98852987,18.0620331 C1.65344858,18.0620331 1.34396565,18.0490308 1.03502449,18.0490308 C0.739356559,18.0490308 0.449512594,18.0551256 0.153980102,18.0620331 L0.153980102,17.890971 C0.548113718,17.8511513 0.739356559,17.8382844 0.758453755,17.3911933 L0.758453755,14.2016907 L0.758453755,14.2016907 Z M1.40288253,17.2856847 C1.40288253,17.7922344 1.76491661,17.8511513 2.08699555,17.8511513 C3.50777275,17.8511513 3.97396103,16.7795413 3.97396103,15.7998958 C3.97396103,14.570226 3.18501659,13.6826804 1.91606888,13.6826804 C1.64586388,13.6826804 1.52152894,13.701913 1.40288253,13.708956 L1.40288253,17.2856847 L1.40288253,17.2856847 Z" id="Fill-5" fill="#0069AA"></path>
                    <path d="M4.92827906,17.890971 L5.05288487,17.890971 C5.23694934,17.890971 5.36859809,17.890971 5.36859809,17.6734526 L5.36859809,15.8915894 C5.36859809,15.6026935 5.27013241,15.5627384 5.02647386,15.4316314 L5.02647386,15.3266645 C5.33555046,15.2337519 5.70408571,15.1096879 5.7300904,15.0899135 C5.77641126,15.0635025 5.81528286,15.0564595 5.84873681,15.0564595 C5.88097179,15.0564595 5.8945159,15.0960083 5.8945159,15.1491013 L5.8945159,17.6734526 C5.8945159,17.890971 6.03943788,17.890971 6.22377323,17.890971 L6.33510582,17.890971 L6.33510582,18.0620331 C6.11149255,18.0620331 5.88097179,18.0490308 5.64503339,18.0490308 C5.40828233,18.0490308 5.17139584,18.0551256 4.92827906,18.0620331 L4.92827906,17.890971 L4.92827906,17.890971 Z M5.63176016,14.0441727 C5.46042716,14.0441727 5.30954577,13.8863838 5.30954577,13.7154572 C5.30954577,13.5507608 5.46760554,13.3992022 5.63176016,13.3992022 C5.80241595,13.3992022 5.95410999,13.5377584 5.95410999,13.7154572 C5.95410999,13.8932913 5.80905256,14.0441727 5.63176016,14.0441727 L5.63176016,14.0441727 Z" id="Fill-6" fill="#0069AA"></path>
                    <path d="M6.96003108,15.9311382 C6.96003108,15.6882923 6.88743464,15.6226034 6.57889981,15.4974558 L6.57889981,15.3725791 C6.86115907,15.2806146 7.13055143,15.1947449 7.44653553,15.0564595 C7.46644537,15.0564595 7.48554256,15.0695973 7.48554256,15.1221485 L7.48554256,15.549736 C7.86098531,15.2806146 8.1831997,15.0564595 8.62446682,15.0564595 C9.18261961,15.0564595 9.37982186,15.4642727 9.37982186,15.9771882 L9.37982186,17.6734526 C9.37982186,17.890971 9.52487928,17.890971 9.7088083,17.890971 L9.82745471,17.890971 L9.82745471,18.0620331 C9.59652763,18.0620331 9.36668407,18.0490308 9.1302039,18.0490308 C8.89331741,18.0490308 8.65643092,18.0551256 8.41967987,18.0620331 L8.41967987,17.890971 L8.53832627,17.890971 C8.72252618,17.890971 8.85349773,17.890971 8.85349773,17.6734526 L8.85349773,15.9710933 C8.85349773,15.595786 8.62446682,15.411857 8.24915951,15.411857 C8.0385486,15.411857 7.70319642,15.5825128 7.48554256,15.7278411 L7.48554256,17.6734526 C7.48554256,17.890971 7.63087087,17.890971 7.81507077,17.890971 L7.93317542,17.890971 L7.93317542,18.0620331 C7.70319642,18.0620331 7.47294654,18.0490308 7.23578917,18.0490308 C6.99957988,18.0490308 6.76255794,18.0551256 6.52607777,18.0620331 L6.52607777,17.890971 L6.64472418,17.890971 C6.8286532,17.890971 6.96003108,17.890971 6.96003108,17.6734526 L6.96003108,15.9311382" id="Fill-7" fill="#0069AA"></path>
                    <path d="M10.3272324,16.2472577 C10.3138237,16.3064455 10.3138237,16.4049112 10.3272324,16.6286599 C10.3659685,17.2531788 10.7679577,17.7658234 11.2934692,17.7658234 C11.6556387,17.7658234 11.9385752,17.5684857 12.1814211,17.3256398 L12.2732502,17.4177398 C11.9706748,17.8187809 11.5960447,18.1609051 11.0572599,18.1609051 C10.0113837,18.1609051 9.8010437,17.1476702 9.8010437,16.7271256 C9.8010437,15.4381326 10.6688149,15.0564595 11.1286374,15.0564595 C11.661869,15.0564595 12.2343786,15.3918117 12.2404734,16.0890625 C12.2404734,16.1290177 12.2404734,16.1680247 12.2343786,16.2075735 L12.1749199,16.2472577 L10.3272324,16.2472577 L10.3272324,16.2472577 Z M11.4916196,16.0366468 C11.6556387,16.0366468 11.6748714,15.951048 11.6748714,15.871815 C11.6748714,15.5370046 11.471168,15.2673413 11.1027682,15.2673413 C10.7019979,15.2673413 10.4256981,15.5627384 10.3468714,16.0366468 L11.4916196,16.0366468 L11.4916196,16.0366468 Z" id="Fill-8" fill="#0069AA"></path>
                    <path d="M12.392032,17.890971 L12.5697308,17.890971 C12.753118,17.890971 12.8847668,17.890971 12.8847668,17.6734526 L12.8847668,15.8260359 C12.8847668,15.6226034 12.64165,15.5825128 12.5429134,15.5299616 L12.5429134,15.4316314 C13.0229167,15.2276571 13.2860788,15.0564595 13.3462146,15.0564595 C13.3846799,15.0564595 13.4044543,15.0762339 13.4044543,15.1423292 L13.4044543,15.7342068 L13.4182693,15.7342068 C13.582153,15.4778168 13.8588592,15.0564595 14.2597649,15.0564595 C14.4240549,15.0564595 14.6342595,15.1681985 14.6342595,15.4050849 C14.6342595,15.5825128 14.5099246,15.7411143 14.3258601,15.7411143 C14.1213441,15.7411143 14.1213441,15.5825128 13.8909587,15.5825128 C13.7793553,15.5825128 13.4110909,15.7342068 13.4110909,16.1290177 L13.4110909,17.6734526 C13.4110909,17.890971 13.5424688,17.890971 13.7266687,17.890971 L14.0945267,17.890971 L14.0945267,18.0620331 C13.732899,18.0551256 13.4576827,18.0490308 13.1746107,18.0490308 C12.9049475,18.0490308 12.6286476,18.0551256 12.392032,18.0620331 L12.392032,17.890971" id="Fill-9" fill="#0069AA"></path>
                    <path d="M14.9234263,17.1476702 C15.0091605,17.5816235 15.2716454,17.9504296 15.7525967,17.9504296 C16.1399583,17.9504296 16.284474,17.7134077 16.284474,17.4834287 C16.284474,16.7070803 14.8513716,16.95724 14.8513716,15.8986323 C14.8513716,15.5299616 15.1474459,15.056595 15.8708368,15.056595 C16.080906,15.056595 16.3635716,15.1161891 16.6198261,15.2478378 L16.6660116,15.9180004 L16.5148593,15.9180004 C16.4491703,15.503957 16.2193268,15.2673413 15.7979695,15.2673413 C15.5349429,15.2673413 15.2853249,15.4183582 15.2853249,15.7011592 C15.2853249,16.4710064 16.8105272,16.2338491 16.8105272,17.2663166 C16.8105272,17.699999 16.4624436,18.1609051 15.679594,18.1609051 C15.4168382,18.1609051 15.1072199,18.0686697 14.8777826,17.9371564 L14.8050508,17.1808533 L14.9234263,17.1476702" id="Fill-10" fill="#0069AA"></path>
                    <path d="M22.7484007,14.6619196 L22.5843815,14.6619196 C22.4592339,13.8932913 21.9134063,13.5838084 21.1774193,13.5838084 C20.4203035,13.5838084 19.3225534,14.0898164 19.3225534,15.6679761 C19.3225534,16.9967888 20.2698285,17.9504296 21.2822507,17.9504296 C21.9326389,17.9504296 22.4730489,17.5030677 22.6042914,16.8121826 L22.7555791,16.8514605 L22.6042914,17.8118734 C22.3281269,17.9830709 21.5848262,18.1609051 21.1503311,18.1609051 C19.6122619,18.1609051 18.6391176,17.1677155 18.6391176,15.6882923 C18.6391176,14.3398407 19.8425118,13.3729266 21.1313693,13.3729266 C21.6637883,13.3729266 22.1765684,13.544395 22.6829826,13.7220938 L22.7484007,14.6619196" id="Fill-11" fill="#0069AA"></path>
                    <path d="M22.985829,17.890971 L23.1102993,17.890971 C23.295041,17.890971 23.4262834,17.890971 23.4262834,17.6734526 L23.4262834,14.0116669 C23.4262834,13.5838084 23.3278177,13.5708061 23.077658,13.4983451 L23.077658,13.3929719 C23.3405492,13.307644 23.6169845,13.1895393 23.7554053,13.1100354 C23.8267828,13.0711638 23.8798757,13.0375744 23.8992438,13.0375744 C23.9394698,13.0375744 23.9524721,13.0775296 23.9524721,13.1303516 L23.9524721,17.6734526 C23.9524721,17.890971 24.0972587,17.890971 24.2811877,17.890971 L24.3925203,17.890971 L24.3925203,18.0620331 C24.1695842,18.0620331 23.9394698,18.0490308 23.7025833,18.0490308 C23.4659677,18.0490308 23.2294875,18.0551256 22.985829,18.0620331 L22.985829,17.890971" id="Fill-12" fill="#0069AA"></path>
                    <path d="M27.2079345,17.699999 C27.2079345,17.8187809 27.2798538,17.8250112 27.3913218,17.8250112 C27.4706903,17.8250112 27.5688851,17.8187809 27.6550256,17.8187809 L27.6550256,17.9572017 C27.3720891,17.9832064 26.8326272,18.1213563 26.7074796,18.1609051 L26.6747029,18.1408598 L26.6747029,17.60817 C26.2805693,17.9302489 25.977723,18.1609051 25.5101803,18.1609051 C25.1551891,18.1609051 24.7871957,17.9302489 24.7871957,17.3785973 L24.7871957,15.694658 C24.7871957,15.5234605 24.7610555,15.359035 24.3933329,15.3266645 L24.3933329,15.2013815 C24.6302194,15.1948804 25.1551891,15.1556024 25.2409234,15.1556024 C25.3139261,15.1556024 25.3139261,15.2013815 25.3139261,15.3463035 L25.3139261,17.0427033 C25.3139261,17.2401765 25.3139261,17.8051013 25.8858939,17.8051013 C26.1091008,17.8051013 26.4050397,17.634581 26.6810686,17.4047374 L26.6810686,15.6353348 C26.6810686,15.503957 26.3656263,15.4316314 26.1292816,15.3662133 L26.1292816,15.2479733 C26.720482,15.2078827 27.0891527,15.1556024 27.1548416,15.1556024 C27.2079345,15.1556024 27.2079345,15.2013815 27.2079345,15.273978 L27.2079345,17.699999" id="Fill-13" fill="#0069AA"></path>
                    <path d="M28.5161602,15.5299616 C28.7790513,15.3068901 29.1343134,15.0564595 29.4959411,15.0564595 C30.2588809,15.0564595 30.7192452,15.7213399 30.7192452,16.4379588 C30.7192452,17.2990934 30.0876833,18.1609051 29.1469094,18.1609051 C28.6608113,18.1609051 28.4042858,18.0025745 28.2329528,17.9302489 L28.0362923,18.0815366 L27.8984133,18.009482 C27.9571947,17.6215786 27.9903778,17.2401765 27.9903778,16.8388645 L27.9903778,14.0116669 C27.9903778,13.5838084 27.8913703,13.5708061 27.6414815,13.4983451 L27.6414815,13.3929719 C27.904779,13.307644 28.1806725,13.1895393 28.318687,13.1100354 C28.3912835,13.0711638 28.4436992,13.0375744 28.4637445,13.0375744 C28.5028869,13.0375744 28.5161602,13.077665 28.5161602,13.1303516 L28.5161602,15.5299616 L28.5161602,15.5299616 Z M28.5161602,17.3187323 C28.5161602,17.5684857 28.7530467,17.9897076 29.1935011,17.9897076 C29.8969822,17.9897076 30.1927856,17.2990934 30.1927856,16.7135815 C30.1927856,16.0035992 29.6541363,15.411857 29.1413563,15.411857 C28.8970205,15.411857 28.693588,15.5699168 28.5161602,15.7213399 L28.5161602,17.3187323 L28.5161602,17.3187323 Z" id="Fill-14" fill="#0069AA"></path>
                    <path d="M0.146666283,21.8855355 L0.196914933,21.8855355 C0.325583983,21.8855355 0.461566852,21.8679282 0.461566852,21.6816966 L0.461566852,19.8071917 C0.461566852,19.6206893 0.325583983,19.6029466 0.196914933,19.6029466 L0.146666283,19.6029466 L0.146666283,19.4954063 C0.286170621,19.4954063 0.500844773,19.5096276 0.676647327,19.5096276 C0.855429586,19.5096276 1.06983286,19.4954063 1.23805071,19.4954063 L1.23805071,19.6029466 L1.18753118,19.6029466 C1.05940389,19.6029466 0.923150138,19.6206893 0.923150138,19.8071917 L0.923150138,21.6816966 C0.923150138,21.8679282 1.05940389,21.8855355 1.18753118,21.8855355 L1.23805071,21.8855355 L1.23805071,21.9930757 C1.06644683,21.9930757 0.851230912,21.9792607 0.672990417,21.9792607 C0.497323304,21.9792607 0.286170621,21.9930757 0.146666283,21.9930757 L0.146666283,21.8855355" id="Fill-15" fill="#0069AA"></path>
                    <path d="M1.23805071,22.0083806 C1.06495698,22.0083806 0.850824588,21.9940238 0.672719535,21.9940238 C0.497594186,21.9940238 0.287118709,22.0083806 0.146666283,22.0083806 L0.131090556,22.0083806 L0.131090556,21.8700952 L0.196644051,21.8700952 C0.32653207,21.8669801 0.444636714,21.8565511 0.445720243,21.6816966 L0.445720243,19.8071917 C0.444636714,19.6320664 0.32653207,19.6206893 0.196644051,19.6183868 L0.131090556,19.6183868 L0.131090556,19.4798306 L0.146666283,19.4798306 C0.287118709,19.4798306 0.501657419,19.493781 0.676647327,19.493781 C0.854616939,19.493781 1.06888477,19.4798306 1.23805071,19.4798306 L1.25403276,19.4798306 L1.25403276,19.6183868 L1.18820838,19.6183868 C1.05818492,19.6206893 0.939403071,19.6320664 0.938725866,19.8071917 L0.938725866,21.6816966 C0.939403071,21.8565511 1.05818492,21.8669801 1.18820838,21.8700952 L1.25403276,21.8700952 L1.25403276,22.0083806 L1.23805071,22.0083806 L1.23805071,22.0083806 Z M1.22261042,21.9777709 L1.22274586,21.901653 L1.18820838,21.901653 C1.06021654,21.901653 0.908116176,21.8791698 0.907303529,21.6816966 L0.907303529,19.8071917 C0.908116176,19.6093123 1.06021654,19.5872354 1.18820838,19.5872354 L1.22261042,19.5872354 L1.22261042,19.5108466 C1.05750771,19.510982 0.850147383,19.5253388 0.676647327,19.5253388 C0.50666874,19.5253388 0.300933702,19.5119301 0.162377451,19.5108466 L0.162377451,19.5872354 L0.196644051,19.5872354 C0.324229572,19.5872354 0.476600815,19.6093123 0.476600815,19.8071917 L0.476600815,21.6816966 C0.476600815,21.8791698 0.324229572,21.901653 0.196644051,21.901653 L0.162377451,21.901653 L0.162377451,21.9777709 C0.300933702,21.9765519 0.50301183,21.9634141 0.672719535,21.9634141 C0.847032237,21.9634141 1.0538508,21.9768228 1.22261042,21.9777709 L1.22261042,21.9777709 Z" id="Fill-16" fill="#0069AA"></path>
                    <path d="M3.69617132,21.2878339 L3.7033497,21.280791 L3.7033497,19.9393823 C3.7033497,19.6457459 3.49910452,19.6028111 3.39183516,19.6028111 L3.31300844,19.6028111 L3.31300844,19.4954063 C3.48149717,19.4954063 3.64605812,19.5096276 3.81400509,19.5096276 C3.9606878,19.5096276 4.10804773,19.4954063 4.25418868,19.4954063 L4.25418868,19.6028111 L4.20096032,19.6028111 C4.05021437,19.6028111 3.88199652,19.6313892 3.88199652,20.057216 L3.88199652,21.6852181 C3.88199652,21.8106366 3.88551799,21.9357842 3.90312533,22.0468459 L3.76714246,22.0468459 L1.92473711,19.9926106 L1.92473711,21.4671579 C1.92473711,21.7786725 1.98527928,21.8855355 2.26076649,21.8855355 L2.32171499,21.8855355 L2.32171499,21.9930757 C2.16785389,21.9930757 2.01412824,21.9791253 1.86026714,21.9791253 C1.69963399,21.9791253 1.53480217,21.9930757 1.37362725,21.9930757 L1.37362725,21.8855355 L1.4238759,21.8855355 C1.6706496,21.8855355 1.74581941,21.7173176 1.74581941,21.4319432 L1.74581941,19.9243483 C1.74581941,19.7241663 1.5807167,19.6028111 1.42035444,19.6028111 L1.37362725,19.6028111 L1.37362725,19.4954063 C1.50933924,19.4954063 1.64911446,19.5096276 1.78482645,19.5096276 C1.89250213,19.5096276 1.99625001,19.4954063 2.10351937,19.4954063 L3.69617132,21.2878339" id="Fill-17" fill="#0069AA"></path>
                    <path d="M3.90312533,22.0618798 L3.75576541,22.0568685 L1.93990651,20.0329721 L1.93990651,21.4671579 C1.94424063,21.7782661 1.99150958,21.8667092 2.26090193,21.8700952 L2.3375616,21.8700952 L2.3375616,22.0083806 L2.32171499,22.0083806 C2.16690581,22.0083806 2.01290927,21.9940238 1.86026714,21.9940238 C1.70004032,21.9940238 1.53561482,22.0083806 1.37349181,22.0083806 L1.35778064,22.0083806 L1.35778064,21.8700952 L1.4238759,21.8700952 C1.66035607,21.8687408 1.72794119,21.7167759 1.73051457,21.4318078 L1.73051457,19.9248901 C1.72983736,19.7343244 1.57353833,19.6183868 1.42048988,19.6183868 L1.35778064,19.6183868 L1.35778064,19.4798306 L1.37349181,19.4798306 C1.51028733,19.4798306 1.65033343,19.493781 1.78455557,19.493781 C1.89128316,19.493781 1.99462472,19.4798306 2.11530275,19.4853837 L3.68777398,21.2554635 L3.68777398,19.9393823 C3.68601324,19.6552268 3.49612481,19.6206893 3.3919706,19.6183868 L3.29729727,19.6183868 L3.29729727,19.4798306 L3.31314388,19.4798306 C3.48217438,19.4798306 3.64687076,19.493781 3.81400509,19.493781 C3.95960427,19.493781 4.10628699,19.4798306 4.25418868,19.4798306 L4.26989985,19.4798306 L4.26989985,19.6183868 L4.20096032,19.6183868 C4.05319408,19.6221792 3.90163548,19.6351815 3.89730137,20.057216 L3.89730137,21.6852181 C3.89730137,21.8105011 3.90122916,21.9353778 3.91843018,22.0440016 L3.92168076,22.0618798 L3.90312533,22.0618798 L3.90312533,22.0618798 Z M3.7672779,22.0307284 L3.88565343,22.0307284 C3.86967138,21.9230527 3.86682712,21.8042708 3.86682712,21.6852181 L3.86682712,20.057216 C3.86682712,19.6277323 4.04682835,19.5872354 4.20096032,19.5869645 L4.23861295,19.5869645 L4.23861295,19.5108466 C4.09761876,19.5119301 3.95635369,19.5249325 3.81400509,19.5249325 C3.65012135,19.5249325 3.49084261,19.5119301 3.32912593,19.5108466 L3.32871961,19.5869645 L3.3919706,19.5869645 C3.50194878,19.5872354 3.71878999,19.6361296 3.71878999,19.9393823 L3.71404955,21.2920326 L3.70700661,21.2989401 L3.69481691,21.3104526 L2.10351937,19.5108466 C1.9971981,19.5108466 1.8937211,19.5249325 1.78455557,19.5249325 C1.65344858,19.5249325 1.519091,19.5119301 1.38933842,19.5108466 L1.38866122,19.5869645 L1.42048988,19.5869645 C1.58830141,19.5872354 1.76098881,19.7153627 1.76098881,19.9248901 L1.76098881,21.4318078 C1.76098881,21.7181303 1.681214,21.9009758 1.4238759,21.9019239 L1.38933842,21.9009758 L1.38933842,21.9777709 C1.54428305,21.9765519 1.70396811,21.9634141 1.86026714,21.9634141 C2.00952324,21.9634141 2.15850846,21.9765519 2.30613926,21.9777709 L2.30613926,21.9019239 L2.26090193,21.9019239 C1.97931988,21.9009758 1.90956771,21.7782661 1.90929682,21.4671579 L1.90929682,19.95252 L3.7672779,22.0307284 L3.7672779,22.0307284 Z M3.69630677,21.2878339 L3.70754838,21.2775404 L3.69630677,21.2878339 L3.69630677,21.2878339 Z M3.68777398,21.280791 L3.68777398,21.2794366 L3.68492971,21.2771341 L3.68777398,21.280791 L3.68777398,21.280791 Z" id="Fill-18" fill="#0069AA"></path>
                    <path d="M4.79040001,19.674324 C4.52168486,19.674324 4.5112559,19.7390649 4.45762122,19.9999244 L4.35021642,19.9999244 C4.3643023,19.899698 4.38204508,19.799607 4.39315125,19.6958592 C4.40750801,19.5952264 4.41468639,19.4954063 4.41468639,19.3919293 L4.50042061,19.3919293 C4.52926956,19.4993341 4.61866069,19.4954063 4.71577196,19.4954063 L6.56129246,19.4954063 C6.65840373,19.4954063 6.74765942,19.4918849 6.75497324,19.3844801 L6.84043658,19.3991077 C6.82662159,19.4954063 6.81199395,19.5921113 6.80156498,19.6889517 C6.79452205,19.7855212 6.79452205,19.8818198 6.79452205,19.9783893 L6.68698181,20.018209 C6.67966799,19.8860185 6.6619252,19.674324 6.42219445,19.674324 L5.83532814,19.674324 L5.83532814,21.5779488 C5.83532814,21.8539777 5.9607466,21.8855355 6.13221504,21.8855355 L6.20047736,21.8855355 L6.20047736,21.9930757 C6.06083758,21.9930757 5.81027153,21.9792607 5.6174034,21.9792607 C5.40245837,21.9792607 5.15175688,21.9930757 5.0121171,21.9930757 L5.0121171,21.8855355 L5.08037942,21.8855355 C5.27758167,21.8855355 5.37726632,21.8679282 5.37726632,21.585398 L5.37726632,19.674324 L4.79040001,19.674324" id="Fill-19" fill="#0069AA"></path>
                    <path d="M6.20074824,22.0083806 C6.05975405,22.0083806 5.80945889,21.9941593 5.6174034,21.9941593 C5.40272925,21.9941593 5.15243409,22.0083806 5.0121171,22.0083806 L4.99681226,22.0083806 L4.99681226,21.8700952 L5.08037942,21.8700952 C5.27758167,21.8654902 5.35681471,21.8629168 5.36128427,21.585398 L5.36128427,19.6896289 L4.79040001,19.6896289 L4.79040001,19.658342 L5.39230028,19.658342 L5.39230028,21.585398 C5.39230028,21.8726686 5.27649814,21.901653 5.08037942,21.9019239 L5.02742195,21.9019239 L5.02742195,21.9775 C5.16855158,21.9765519 5.40963675,21.9634141 5.6174034,21.9634141 C5.80363492,21.9634141 6.04268847,21.9765519 6.18449531,21.9775 L6.18449531,21.9019239 L6.13221504,21.9019239 C5.95912131,21.901653 5.81988785,21.8591245 5.81988785,21.5779488 L5.81988785,19.658342 L6.42219445,19.658342 C6.66219609,19.6592901 6.69402475,19.8632644 6.70147401,19.996403 L6.77894632,19.9678249 C6.77894632,19.8743705 6.77935264,19.7807807 6.78571837,19.6867846 C6.79628278,19.5942783 6.80928513,19.5033973 6.8226938,19.4117037 L6.76838191,19.4026292 C6.75172266,19.5067834 6.65081903,19.5123365 6.56115702,19.510982 L4.69708109,19.510982 C4.61283672,19.5111175 4.5211431,19.5070543 4.48890811,19.4072342 L4.42985579,19.4072342 C4.42931403,19.5061062 4.42254197,19.6021339 4.40899786,19.6974844 C4.39829801,19.7958147 4.38190964,19.8902171 4.36890729,19.9850259 L4.44529608,19.9850259 C4.49229414,19.735408 4.52290383,19.6548205 4.79040001,19.658342 L4.79040001,19.6896289 C4.52534177,19.6949111 4.53116574,19.7392003 4.47279062,20.0035813 L4.47021724,20.015771 L4.3323382,20.015771 L4.33423437,19.9972156 C4.34886201,19.8973955 4.36701112,19.7968982 4.37744008,19.6930149 C4.3923386,19.5937366 4.39911066,19.4944582 4.39911066,19.3919293 L4.39911066,19.3760827 L4.51274575,19.3760827 L4.51545457,19.3873243 C4.53956309,19.4775281 4.60579379,19.4782053 4.69708109,19.4798306 L6.56115702,19.4798306 C6.66084167,19.4782053 6.73343811,19.4768509 6.73953296,19.3832611 L6.74075193,19.3663309 L6.75700486,19.3695815 L6.85817936,19.3855636 L6.85560598,19.4014102 C6.84138467,19.4974379 6.82743423,19.5937366 6.81659895,19.6896289 C6.80996233,19.7855212 6.80996233,19.8816844 6.80996233,19.9783893 L6.80996233,19.9892246 L6.79953337,19.9934233 L6.67289593,20.0397441 L6.67208329,20.0190216 C6.66219609,19.8843932 6.64838109,19.6896289 6.42219445,19.6896289 L5.85103931,19.6896289 L5.85103931,21.5779488 C5.85456078,21.8477474 5.96155925,21.8667092 6.13221504,21.8700952 L6.21591764,21.8700952 L6.21591764,22.0083806 L6.20074824,22.0083806" id="Fill-20" fill="#0069AA"></path>
                    <path d="M6.95474887,21.8855355 L7.00513296,21.8855355 C7.13353113,21.8855355 7.26992032,21.8679282 7.26992032,21.6816966 L7.26992032,19.8071917 C7.26992032,19.6206893 7.13353113,19.6029466 7.00513296,19.6029466 L6.95474887,19.6029466 L6.95474887,19.4954063 C7.17226729,19.4954063 7.54527209,19.5096276 7.84527414,19.5096276 C8.14635972,19.5096276 8.51801011,19.4954063 8.76126233,19.4954063 C8.75503204,19.6492674 8.75841807,19.8860185 8.76898248,20.0431301 L8.66117136,20.0715728 C8.64397034,19.838885 8.60103551,19.6533306 8.22518644,19.6533306 L7.72838846,19.6533306 L7.72838846,20.5901768 L8.15340265,20.5901768 C8.3680768,20.5901768 8.41480399,20.468957 8.43606824,20.2755471 L8.54333759,20.2755471 C8.53615922,20.4153223 8.53236686,20.5548266 8.53236686,20.6941955 C8.53236686,20.8304493 8.53615922,20.9662967 8.54333759,21.1020087 L8.43606824,21.1234084 C8.41480399,20.9090051 8.40410414,20.7695008 8.15692412,20.7695008 L7.72838846,20.7695008 L7.72838846,21.6027345 C7.72838846,21.8356932 7.93507159,21.8356932 8.16423794,21.8356932 C8.59372169,21.8356932 8.78320379,21.8068442 8.89060859,21.3994374 L8.99042868,21.4240877 C8.94397238,21.6141115 8.90130844,21.8031873 8.86920889,21.9930757 C8.6399071,21.9930757 8.22843703,21.9792607 7.90703528,21.9792607 C7.58427913,21.9792607 7.15885862,21.9930757 6.95474887,21.9930757 L6.95474887,21.8855355" id="Fill-21" fill="#0069AA"></path>
                    <path d="M8.86893801,22.0083806 C8.63936534,22.0083806 8.22762438,21.9934821 7.90662896,21.9934821 C7.58427913,21.9934821 7.15899406,22.0083806 6.95461343,22.0083806 L6.93957947,22.0083806 L6.93957947,21.8700952 L7.00499752,21.8700952 C7.13447922,21.8679282 7.25231298,21.8565511 7.25393827,21.6816966 L7.25393827,19.8071917 C7.25231298,19.6323373 7.13447922,19.6206893 7.00499752,19.6183868 L6.93957947,19.6183868 L6.93957947,19.4798306 L6.95461343,19.4798306 C7.17321538,19.4798306 7.54540753,19.493781 7.84527414,19.493781 C8.14608883,19.493781 8.51760378,19.4798306 8.76126233,19.4798306 L8.77710894,19.4798306 L8.77656718,19.4963544 C8.77426468,19.5498536 8.77277483,19.613511 8.77277483,19.6808252 C8.77277483,19.8044829 8.77656718,19.9400595 8.78361011,20.0419112 L8.78428732,20.0546426 L8.77223306,20.0582996 L8.64640828,20.0912117 L8.64586651,20.0727918 C8.6247377,19.8406457 8.59358624,19.6717506 8.22518644,19.6682292 L7.74288066,19.6682292 L7.74260978,20.5744656 L8.15326721,20.5744656 C8.35954401,20.5722985 8.396384,20.4669254 8.42076339,20.2739218 L8.42157604,20.259565 L8.5591842,20.259565 L8.55891332,20.2759534 C8.55200583,20.4157286 8.54780715,20.5548266 8.54780715,20.6941955 C8.54780715,20.8295012 8.55200583,20.9653486 8.55891332,21.1013315 L8.5591842,21.1143338 L8.54618186,21.1173136 L8.42157604,21.1420993 L8.42076339,21.1253046 C8.39597767,20.9068381 8.39435238,20.7871081 8.15692412,20.7845348 L7.74288066,20.7845348 L7.74288066,21.6027345 C7.74342243,21.8202529 7.93087292,21.8190339 8.1641025,21.8202529 C8.59494066,21.8176795 8.76749262,21.7965507 8.87530374,21.3952387 L8.87896065,21.3807465 L8.89399462,21.3831844 L9.00871323,21.4129815 L9.00546265,21.4277446 C8.95900635,21.6170912 8.9163424,21.8063025 8.88397197,21.9956491 L8.88126315,22.0083806 L8.86893801,22.0083806 L8.86893801,22.0083806 Z M8.85566478,21.9775 C8.88695168,21.7965507 8.92771945,21.6158723 8.97160237,21.4357356 L8.90117299,21.4179928 C8.79403908,21.8182213 8.58640787,21.8539777 8.1641025,21.8512689 C7.93859306,21.8512689 7.71321906,21.8512689 7.71200009,21.6027345 L7.71200009,20.7539251 L8.15692412,20.7539251 C8.40681296,20.7513517 8.43200501,20.9019622 8.44988323,21.1055302 L8.52708466,21.0896836 C8.52017717,20.9577639 8.5166557,20.8253025 8.5166557,20.6941955 C8.5166557,20.559838 8.52017717,20.4257513 8.52708466,20.2907165 L8.44988323,20.2907165 C8.42970251,20.4776252 8.37132739,20.608055 8.15326721,20.6057525 L7.71200009,20.6057525 L7.71200009,19.6372132 L8.22518644,19.6372132 C8.59724315,19.6342335 8.65886886,19.8268307 8.67512179,20.0519338 L8.75218778,20.0309404 C8.74595749,19.9300368 8.74175881,19.8002842 8.74175881,19.6808252 C8.74175881,19.6196058 8.74338411,19.5615016 8.74541572,19.5108466 C8.50229894,19.5119301 8.13945222,19.5249325 7.84527414,19.5249325 C7.5512315,19.5249325 7.18933287,19.5119301 6.9703246,19.5108466 L6.9703246,19.5869645 L7.00499752,19.5869645 C7.13231216,19.5872354 7.28454796,19.6093123 7.28536061,19.8071917 L7.28536061,21.6816966 C7.28454796,21.8791698 7.13231216,21.9009758 7.00499752,21.9019239 L6.9703246,21.9019239 L6.9703246,21.9775 C7.17863302,21.9768228 7.59227015,21.9634141 7.90662896,21.9634141 C8.22247762,21.9634141 8.62500858,21.9768228 8.85566478,21.9775 L8.85566478,21.9775 Z" id="Fill-22" fill="#0069AA"></path>
                    <path d="M9.47368255,19.8743705 C9.47368255,19.613511 9.33038586,19.6028111 9.21932415,19.6028111 L9.15471874,19.6028111 L9.15471874,19.4954063 C9.26930192,19.4954063 9.49115445,19.5096276 9.70962095,19.5096276 C9.92388878,19.5096276 10.095899,19.4954063 10.2855165,19.4954063 C10.7357228,19.4954063 11.1373056,19.616897 11.1373056,20.1253429 C11.1373056,20.447151 10.922496,20.643676 10.6399659,20.7552795 L11.2514825,21.6707259 C11.3519798,21.8221491 11.4229509,21.8645421 11.5987535,21.8855355 L11.5987535,21.9930757 C11.480378,21.9930757 11.3659302,21.9792607 11.2482319,21.9792607 C11.1373056,21.9792607 11.0223161,21.9930757 10.9119316,21.9930757 C10.6361736,21.6318543 10.3998288,21.2455763 10.1674119,20.833429 L9.93160892,20.833429 L9.93160892,21.5996193 C9.93160892,21.8751065 10.0601425,21.8855355 10.2241617,21.8855355 L10.289038,21.8855355 L10.289038,21.9930757 C10.0846574,21.9930757 9.87797424,21.9792607 9.67359362,21.9792607 C9.5018543,21.9792607 9.33363644,21.9930757 9.15471874,21.9930757 L9.15471874,21.8855355 L9.21932415,21.8855355 C9.35219187,21.8855355 9.47368255,21.8249933 9.47368255,21.6928028 L9.47368255,19.8743705 L9.47368255,19.8743705 Z M9.93160892,20.7043536 L10.1064634,20.7043536 C10.4647051,20.7043536 10.6575732,20.5687771 10.6575732,20.1463363 C10.6575732,19.8281851 10.4535989,19.6242108 10.1347706,19.6242108 C10.0273658,19.6242108 9.98158669,19.6351815 9.93160892,19.638703 L9.93160892,20.7043536 L9.93160892,20.7043536 Z" id="Fill-23" fill="#0069AA"></path>
                    <path d="M11.5987535,22.0083806 C11.4787527,22.0083806 11.3649821,21.9940238 11.2472838,21.9940238 C11.1382537,21.9940238 11.023806,22.0083806 10.8992002,22.0024212 C10.6246611,21.6421478 10.3893999,21.2580369 10.1583373,20.8495465 L9.94691377,20.8495465 L9.94691377,21.5989421 C9.95084156,21.8683345 10.0587881,21.8663029 10.2241617,21.8700952 L10.3044783,21.8700952 L10.3044783,22.0083806 L10.2886317,22.0083806 C10.0841156,22.0083806 9.87621351,21.9940238 9.67345818,21.9940238 C9.5025315,21.9940238 9.33444909,22.0083806 9.15471874,22.0083806 L9.13914302,22.0083806 L9.13914302,21.8700952 L9.21932415,21.8700952 C9.3479932,21.8691471 9.45675241,21.8130745 9.45729417,21.6928028 L9.45729417,19.8743705 C9.45458535,19.6206893 9.33038586,19.6219083 9.21932415,19.6183868 L9.13914302,19.6183868 L9.13914302,19.4798306 L9.15471874,19.4798306 C9.27052089,19.4798306 9.49142533,19.493781 9.70962095,19.493781 C9.92321157,19.493781 10.0948155,19.4798306 10.2855165,19.4798306 C10.7366709,19.4807787 11.1517978,19.6049782 11.1528814,20.1248011 C11.1528814,20.4476927 10.9394262,20.6495 10.6635327,20.7620515 L11.2643494,21.6621931 C11.3644404,21.8106366 11.4267433,21.8477474 11.6007851,21.8700952 L11.6137874,21.8721268 L11.6137874,22.0083806 L11.5987535,22.0083806 L11.5987535,22.0083806 Z M9.93147348,20.8179887 L10.1759447,20.8179887 L10.1804142,20.8259797 C10.4133729,21.2370435 10.6484987,21.623457 10.9119316,21.9777709 C11.0208263,21.9777709 11.1358158,21.9634141 11.2472838,21.9634141 C11.3614607,21.9634141 11.4719806,21.9758747 11.5830423,21.9775 L11.5830423,21.8989442 C11.4153662,21.8784926 11.3365395,21.8278376 11.2388865,21.6795296 L10.6159928,20.7481011 L10.6336002,20.7409227 C10.9138278,20.6305382 11.121459,20.4394308 11.1215945,20.1248011 C11.121459,19.6284095 10.7353164,19.5132845 10.2855165,19.5108466 C10.097118,19.5108466 9.92510775,19.5253388 9.70962095,19.5253388 C9.49941636,19.5253388 9.2870447,19.5119301 9.17002359,19.5108466 L9.17002359,19.5869645 L9.21932415,19.5869645 C9.33038586,19.5872354 9.48844563,19.6056554 9.48844563,19.8743705 L9.48844563,21.6928028 C9.48844563,21.8363704 9.35395261,21.901653 9.21932415,21.9019239 L9.17002359,21.9019239 L9.17002359,21.9775 C9.34203379,21.9768228 9.50537576,21.9634141 9.67345818,21.9634141 C9.87323381,21.9634141 10.0753119,21.9768228 10.2731914,21.9775 L10.2731914,21.9019239 L10.2241617,21.9019239 C10.0612261,21.901653 9.91562687,21.8814723 9.91562687,21.5989421 L9.91562687,20.8179887 L9.93147348,20.8179887 L9.93147348,20.8179887 Z M9.93147348,20.7197939 L9.91562687,20.7197939 L9.91562687,19.6242108 L9.92930642,19.6231273 C9.9783361,19.6191995 10.0265531,19.6093123 10.1347706,19.6093123 C10.4606419,19.6093123 10.6728781,19.8210067 10.673149,20.1472844 C10.6722009,20.5744656 10.4674139,20.7196585 10.1064634,20.7197939 L9.93147348,20.7197939 L9.93147348,20.7197939 Z M10.1064634,20.6893197 C10.4606419,20.6857982 10.6391533,20.5629531 10.6426747,20.1472844 C10.6405077,19.8346863 10.4464206,19.6407346 10.1347706,19.6393802 C10.0382011,19.6393802 9.99255742,19.6483193 9.94691377,19.6527889 L9.94691377,20.6893197 L10.1064634,20.6893197 L10.1064634,20.6893197 Z" id="Fill-24" fill="#0069AA"></path>
                    <path d="M14.0280251,21.2878339 L14.0342554,21.280791 L14.0342554,19.9393823 C14.0342554,19.6457459 13.8309583,19.6028111 13.7235535,19.6028111 L13.6451331,19.6028111 L13.6451331,19.4954063 C13.813351,19.4954063 13.9773702,19.5096276 14.1459943,19.5096276 C14.2930834,19.5096276 14.4386826,19.4954063 14.5864488,19.4954063 L14.5864488,19.6028111 L14.5325433,19.6028111 C14.3822036,19.6028111 14.2141212,19.6313892 14.2141212,20.057216 L14.2141212,21.6852181 C14.2141212,21.8106366 14.2176427,21.9357842 14.23525,22.0468459 L14.0998089,22.0468459 L12.2572681,19.9926106 L12.2572681,21.4671579 C12.2572681,21.7786725 12.3176749,21.8855355 12.5931621,21.8855355 L12.6541106,21.8855355 L12.6541106,21.9930757 C12.5003849,21.9930757 12.3462529,21.9791253 12.1925273,21.9791253 C12.0309461,21.9791253 11.866656,21.9930757 11.705752,21.9930757 L11.705752,21.8855355 L11.7554588,21.8855355 C12.0025034,21.8855355 12.0780796,21.7173176 12.0780796,21.4319432 L12.0780796,19.9243483 C12.0780796,19.7241663 11.9132477,19.6028111 11.7523437,19.6028111 L11.705752,19.6028111 L11.705752,19.4954063 C11.8411931,19.4954063 11.9817809,19.5096276 12.1174929,19.5096276 C12.2238142,19.5096276 12.3281038,19.4954063 12.4356441,19.4954063 L14.0280251,21.2878339" id="Fill-25" fill="#0069AA"></path>
                    <path d="M14.2351146,22.0618798 L14.088161,22.0568685 L12.2720312,20.0332429 L12.2720312,21.4670225 C12.2762299,21.7786725 12.3233634,21.8667092 12.5931621,21.8700952 L12.6690091,21.8700952 L12.6690091,22.0083806 L12.6534334,22.0083806 C12.4987596,22.0083806 12.3451694,21.9934821 12.1918501,21.9934821 C12.032165,21.9934821 11.8667914,22.0083806 11.7056165,22.0083806 L11.6896345,22.0083806 L11.6896345,21.8700952 L11.7554588,21.8700952 C11.9918036,21.8691471 12.0595241,21.7167759 12.0618266,21.4309952 L12.0618266,19.9243483 C12.0614203,19.7336472 11.9053921,19.6183868 11.7523437,19.6183868 L11.6896345,19.6183868 L11.6896345,19.4798306 L11.7056165,19.4798306 C11.8422766,19.4798306 11.9823227,19.493781 12.1173575,19.493781 C12.2224598,19.493781 12.3260722,19.4798306 12.446073,19.4844356 L14.019086,21.2554635 L14.019086,19.9393823 C14.0181379,19.6552268 13.8275723,19.6200121 13.7235535,19.6183868 L13.6291511,19.6183868 L13.6291511,19.4798306 L13.6447268,19.4798306 C13.8137573,19.4798306 13.9787246,19.493781 14.1459943,19.493781 C14.291729,19.493781 14.4382763,19.4798306 14.5857716,19.4798306 L14.6016182,19.4798306 L14.6016182,19.6183868 L14.5325433,19.6183868 C14.3849125,19.6219083 14.2328121,19.6351815 14.2292906,20.057216 L14.2292906,21.6852181 C14.2292906,21.8105011 14.2324058,21.9345652 14.2506903,22.0442725 L14.2524511,22.0618798 L14.2351146,22.0618798 L14.2351146,22.0618798 Z M14.0996735,22.0307284 L14.2169655,22.0307284 C14.2012543,21.9237299 14.1981392,21.8042708 14.1981392,21.6852181 L14.1981392,20.057216 C14.1984101,19.6277323 14.3793594,19.5879126 14.5325433,19.5869645 L14.5701959,19.5869645 L14.5701959,19.5108466 C14.4293371,19.5119301 14.2879366,19.5249325 14.1459943,19.5249325 C13.9815688,19.5249325 13.8221547,19.5119301 13.6603025,19.5108466 L13.6603025,19.5869645 L13.7235535,19.5869645 C13.8338026,19.5879126 14.0505084,19.6361296 14.0505084,19.9393823 L14.0453616,21.2920326 L14.0388604,21.2989401 L14.0276188,21.3107235 L12.4356441,19.5108466 C12.3291874,19.5108466 12.2254395,19.5249325 12.1173575,19.5249325 C11.9846252,19.5249325 11.8509448,19.5119301 11.7209214,19.5108466 L11.7209214,19.5869645 L11.7523437,19.5869645 C11.920697,19.5879126 12.0928426,19.7148209 12.0928426,19.9243483 L12.0928426,21.4309952 C12.0928426,21.7181303 12.0119843,21.9009758 11.7554588,21.9019239 L11.7209214,21.901653 L11.7209214,21.9776355 C11.8754597,21.9765519 12.0348738,21.9634141 12.1918501,21.9634141 C12.3419188,21.9634141 12.4906332,21.9765519 12.6385348,21.9776355 L12.6385348,21.9019239 L12.5931621,21.9019239 C12.31158,21.901653 12.2414215,21.7786725 12.2406089,21.4670225 L12.2406089,19.9530618 L14.0996735,22.0307284 L14.0996735,22.0307284 Z M14.0276188,21.2878339 L14.0392668,21.2775404 L14.0276188,21.2878339 L14.0276188,21.2878339 Z M14.019086,21.280791 L14.019086,21.2798429 L14.0165127,21.2771341 L14.019086,21.280791 L14.019086,21.280791 Z" id="Fill-26" fill="#0069AA"></path>
                    <path d="M15.1616672,21.4815147 C15.1256399,21.6027345 15.0824341,21.6967306 15.0824341,21.7602525 C15.0824341,21.8679282 15.2331801,21.8856709 15.3508784,21.8856709 L15.3908335,21.8856709 L15.3908335,21.9930757 C15.2471305,21.9853556 15.101125,21.9792607 14.9571511,21.9792607 C14.8283466,21.9792607 14.7002194,21.9853556 14.5710085,21.9930757 L14.5710085,21.8856709 L14.5928146,21.8856709 C14.732048,21.8856709 14.850559,21.8031873 14.9036519,21.6528477 L15.4761614,20.0110306 C15.5228886,19.8782983 15.5873586,19.6995161 15.6091646,19.5667838 C15.7229351,19.5276413 15.8666381,19.4565347 15.9343587,19.4130581 C15.9454649,19.4094012 15.9521015,19.4057443 15.9629368,19.4057443 C15.9737721,19.4057443 15.9804087,19.4057443 15.9882643,19.4169859 C15.9988287,19.4452931 16.0092576,19.4775281 16.0203638,19.5061062 L16.6790139,21.3777668 C16.7219487,21.5026435 16.7644772,21.6349695 16.8102563,21.742916 C16.8538684,21.8432779 16.9290382,21.8856709 17.0475491,21.8856709 L17.0689488,21.8856709 L17.0689488,21.9930757 C16.9077739,21.9853556 16.7463281,21.9792607 16.5754015,21.9792607 C16.4000052,21.9792607 16.2205458,21.9853556 16.0381066,21.9930757 L16.0381066,21.8856709 L16.0775199,21.8856709 C16.1593264,21.8856709 16.2997788,21.8714496 16.2997788,21.7819231 C16.2997788,21.7357376 16.2674084,21.6390327 16.2274533,21.5240432 L16.0880844,21.1091871 L15.2759795,21.1091871 L15.1616672,21.4815147 L15.1616672,21.4815147 Z M15.6840635,19.896312 L15.6766143,19.896312 L15.3441064,20.9090051 L16.0126437,20.9090051 L15.6840635,19.896312 L15.6840635,19.896312 Z" id="Fill-27" fill="#0069AA"></path>
                    <path d="M17.0678653,22.0083806 C16.9070967,22.0014731 16.7457864,21.9934821 16.5754015,21.9934821 C16.4000052,21.9934821 16.2214938,22.0014731 16.0389192,22.0083806 L16.0223954,22.0091932 L16.0223954,21.869418 L16.0775199,21.869418 C16.1604099,21.869418 16.2833904,21.8508626 16.2836613,21.7819231 C16.284474,21.7411553 16.2523744,21.6430959 16.2129611,21.5293254 L16.0767073,21.1244919 L15.287492,21.1244919 L15.1761594,21.4861197 C15.1401321,21.6077458 15.0966555,21.7022837 15.0973327,21.7605234 C15.0985516,21.8478829 15.2320966,21.869418 15.3508784,21.869418 L15.4058675,21.869418 L15.4058675,22.0091932 L15.3896146,22.0083806 C15.2465888,22.0014731 15.1005833,21.9934821 14.957422,21.9934821 C14.829701,21.9934821 14.7003548,22.0014731 14.5722275,22.0083806 L14.5555683,22.0091932 L14.5555683,21.869418 L14.5926791,21.869418 C14.7256823,21.8691471 14.836744,21.7931647 14.8884825,21.6478364 L15.4615338,20.0054775 C15.5077192,19.8730161 15.5727309,19.6950465 15.6036115,19.5520207 C15.7158922,19.5139618 15.8598661,19.4417716 15.9285347,19.3985659 C15.9385574,19.3950445 15.9484446,19.3904395 15.9628013,19.3904395 C15.971605,19.3898977 15.9908376,19.3922002 16.0024856,19.4108911 C16.0126437,19.4402818 16.0240207,19.4723813 16.034856,19.5012303 L16.6936415,21.37262 C16.7357637,21.4979031 16.7785631,21.6300936 16.8254257,21.736144 C16.8668707,21.8314945 16.9325596,21.8691471 17.0475491,21.869418 L17.0837119,21.869418 L17.0837119,22.0091932 L17.0678653,22.0083806 L17.0678653,22.0083806 Z M16.0536823,21.9765519 C16.2307038,21.9703216 16.4044748,21.9634141 16.5754015,21.9634141 C16.7413168,21.9634141 16.897345,21.9703216 17.0528313,21.9765519 L17.0528313,21.901653 L17.0475491,21.901653 C16.9248395,21.9024656 16.8404597,21.8542486 16.7965768,21.74874 C16.749985,21.640658 16.7065084,21.5077903 16.6642508,21.3825072 L16.0054653,19.510982 C15.99463,19.482404 15.9844719,19.4504399 15.9751265,19.4249769 C15.971605,19.4214555 15.9724177,19.4214555 15.9695734,19.4214555 L15.9628013,19.4214555 C15.955623,19.4214555 15.9512888,19.4236225 15.9420788,19.425925 C15.8732748,19.4706206 15.7298426,19.5411854 15.6233859,19.5690863 C15.6015799,19.7046628 15.5371099,19.8834451 15.4906536,20.0160419 L14.9181441,21.6579944 C14.8636968,21.8134808 14.737872,21.9019239 14.5926791,21.901653 L14.5867197,21.901653 L14.5867197,21.9765519 C14.7094293,21.9703216 14.8332225,21.9634141 14.957422,21.9634141 C15.0958428,21.9634141 15.2369725,21.9703216 15.3739034,21.9765519 L15.3739034,21.901653 L15.3508784,21.901653 C15.2339927,21.9000277 15.0711925,21.8872962 15.0671293,21.7605234 C15.0674002,21.6895522 15.1112831,21.597994 15.1463624,21.4770451 L15.1615318,21.4815147 L15.1463624,21.4766388 L15.2641961,21.0942886 L16.0985133,21.0942886 L16.24181,21.5191673 C16.282036,21.6342923 16.3145419,21.7296428 16.3145419,21.7819231 C16.3092597,21.8914949 16.1586492,21.8996214 16.0775199,21.901653 L16.0536823,21.901653 L16.0536823,21.9765519 L16.0536823,21.9765519 Z M15.3223003,20.9244454 L15.6648309,19.8804654 L15.6840635,19.8804654 L15.6840635,19.896312 L15.6802712,19.8973955 L15.6840635,19.896312 L15.6840635,19.8804654 L15.6947634,19.8804654 L16.034856,20.9244454 L15.3223003,20.9244454 L15.3223003,20.9244454 Z M15.3650997,20.8931585 L15.9915148,20.8931585 L15.6801357,19.9343709 L15.3650997,20.8931585 L15.3650997,20.8931585 Z M15.6684878,19.900917 L15.6767497,19.8983436 L15.6684878,19.900917 L15.6684878,19.900917 Z" id="Fill-28" fill="#0069AA"></path>
                    <path d="M17.226196,19.674324 C16.9578871,19.674324 16.9470518,19.7390649 16.8931463,19.9999244 L16.785606,19.9999244 C16.7996919,19.899698 16.8179765,19.799607 16.8290826,19.6958592 C16.8430331,19.5952264 16.8499406,19.4954063 16.8499406,19.3919293 L16.9364874,19.3919293 C16.9645237,19.4993341 17.0541858,19.4954063 17.1507553,19.4954063 L18.9973593,19.4954063 C19.0935225,19.4954063 19.1829136,19.4918849 19.1899565,19.3844801 L19.2755553,19.3991077 C19.2622821,19.4954063 19.2480608,19.5921113 19.2368192,19.6889517 C19.2289636,19.7855212 19.2289636,19.8818198 19.2289636,19.9783893 L19.1221006,20.018209 C19.1157348,19.8860185 19.0977212,19.674324 18.8574486,19.674324 L18.2707178,19.674324 L18.2707178,21.5779488 C18.2707178,21.8539777 18.3961362,21.8855355 18.5676047,21.8855355 L18.6360024,21.8855355 L18.6360024,21.9930757 C18.4962272,21.9930757 18.2462029,21.9792607 18.0525221,21.9792607 C17.8382543,21.9792607 17.5871465,21.9930757 17.4476422,21.9930757 L17.4476422,21.8855355 L17.515769,21.8855355 C17.7129713,21.8855355 17.8127914,21.8679282 17.8127914,21.585398 L17.8127914,19.674324 L17.226196,19.674324" id="Fill-29" fill="#0069AA"></path>
                    <path d="M18.6360024,22.0083806 C18.4954146,22.0083806 18.2445776,21.9941593 18.0522513,21.9941593 C17.8385252,21.9941593 17.5879592,22.0083806 17.4477776,22.0083806 L17.431931,22.0083806 L17.431931,21.8700952 L17.515769,21.8700952 C17.7131067,21.8654902 17.7922043,21.8629168 17.7969448,21.585398 L17.7966739,19.6896289 L17.226196,19.6896289 L17.226196,19.658342 L17.8282317,19.658342 L17.8282317,21.585398 C17.8282317,21.8726686 17.7122941,21.9009758 17.515769,21.901653 L17.4630825,21.901653 L17.4630825,21.9777709 C17.604483,21.9765519 17.8448909,21.9634141 18.0522513,21.9634141 C18.2392954,21.9634141 18.4787553,21.9765519 18.6200204,21.9777709 L18.6200204,21.901653 L18.5674692,21.901653 C18.3950527,21.9009758 18.2556838,21.8595308 18.2554129,21.5779488 L18.2554129,19.658342 L18.8574486,19.658342 C19.0978566,19.6592901 19.1291435,19.8632644 19.136051,19.996403 L19.2137942,19.9678249 C19.2137942,19.8743705 19.2143359,19.7807807 19.2216498,19.6871909 C19.2312661,19.5949555 19.2448102,19.5033973 19.2578125,19.41211 L19.2037715,19.4026292 C19.1873832,19.5067834 19.0863441,19.5126073 18.9973593,19.510982 L17.1324707,19.510982 C17.0480909,19.5119301 16.9568036,19.5070543 16.9242977,19.4069633 L16.8657872,19.4069633 C16.8649745,19.5059707 16.8579316,19.6021339 16.8438457,19.6974844 C16.834094,19.796221 16.8168929,19.8908943 16.8032134,19.9850259 L16.8801439,19.9850259 C16.927142,19.735408 16.958158,19.6544142 17.226196,19.658342 L17.226196,19.6896289 C16.9608668,19.6942339 16.9666908,19.7392003 16.9083157,20.0035813 L16.9057423,20.015771 L16.7675924,20.015771 L16.7697594,19.9980283 C16.7847934,19.8973955 16.8024007,19.7968982 16.8128297,19.6938275 C16.8274573,19.5937366 16.834094,19.4944582 16.834094,19.3919293 L16.834094,19.3760827 L16.947729,19.3760827 L16.9507088,19.3873243 C16.9757654,19.4775281 17.0409125,19.4782053 17.1324707,19.4798306 L18.9973593,19.4798306 C19.0963667,19.4782053 19.1685568,19.4768509 19.1749226,19.383532 L19.1754643,19.3663309 L19.1921236,19.3695815 L19.2937044,19.3855636 L19.2912665,19.4014102 C19.2765034,19.4974379 19.2629593,19.5937366 19.252124,19.6896289 C19.2448102,19.7855212 19.2448102,19.8818198 19.2448102,19.9783893 L19.2448102,19.9892246 L19.2343812,19.9934233 L19.1077438,20.0397441 L19.107202,20.0190216 C19.0978566,19.8843932 19.0836353,19.6896289 18.8574486,19.6896289 L18.286158,19.6896289 L18.286158,21.5779488 C18.289815,21.8477474 18.3969489,21.8667092 18.5674692,21.8700952 L18.6509009,21.8700952 L18.6509009,22.0083806 L18.6360024,22.0083806" id="Fill-30" fill="#0069AA"></path>
                    <path d="M19.4080167,21.8855355 L19.4581299,21.8855355 C19.5870699,21.8855355 19.722511,21.8679282 19.722511,21.6816966 L19.722511,19.8071917 C19.722511,19.6206893 19.5870699,19.6029466 19.4581299,19.6029466 L19.4080167,19.6029466 L19.4080167,19.4954063 C19.5476565,19.4954063 19.7619243,19.5096276 19.9370497,19.5096276 C20.1163737,19.5096276 20.3311833,19.4954063 20.499672,19.4954063 L20.499672,19.6029466 L20.4494234,19.6029466 C20.3200771,19.6029466 20.1840943,19.6206893 20.1840943,19.8071917 L20.1840943,21.6816966 C20.1840943,21.8679282 20.3200771,21.8855355 20.4494234,21.8855355 L20.499672,21.8855355 L20.499672,21.9930757 C20.3277973,21.9930757 20.1128522,21.9792607 19.9342054,21.9792607 C19.7585383,21.9792607 19.5476565,21.9930757 19.4080167,21.9930757 L19.4080167,21.8855355" id="Fill-31" fill="#0069AA"></path>
                    <path d="M20.499672,22.0083806 C20.3267137,22.0083806 20.1127168,21.9934821 19.9342054,21.9934821 C19.7590801,21.9934821 19.5477919,22.0083806 19.4080167,22.0083806 L19.3927119,22.0083806 L19.3927119,21.8700952 L19.4582654,21.8700952 C19.5872053,21.8679282 19.7061226,21.8565511 19.7069352,21.6816966 L19.7069352,19.8071917 C19.7061226,19.6323373 19.5872053,19.6206893 19.4582654,19.6183868 L19.3927119,19.6183868 L19.3927119,19.4798306 L19.4080167,19.4798306 C19.5477919,19.4798306 19.7630079,19.493781 19.9370497,19.493781 C20.1154256,19.493781 20.3300998,19.4798306 20.499672,19.4798306 L20.5145706,19.4798306 L20.5145706,19.6183868 L20.4495588,19.6183868 C20.3185873,19.6206893 20.200889,19.6323373 20.19967,19.8071917 L20.19967,21.6816966 C20.200889,21.8565511 20.3185873,21.8679282 20.4495588,21.8700952 L20.5145706,21.8700952 L20.5145706,22.0083806 L20.499672,22.0083806 L20.499672,22.0083806 Z M20.4834191,21.9775 L20.4834191,21.901653 L20.4495588,21.901653 C20.3211607,21.901653 20.1693312,21.8791698 20.1693312,21.6816966 L20.1693312,19.8071917 C20.1693312,19.6093123 20.3211607,19.5872354 20.4495588,19.5869645 L20.4834191,19.5869645 L20.4834191,19.5108466 C20.3184518,19.5119301 20.1112269,19.5249325 19.9370497,19.5249325 C19.7672065,19.5249325 19.5624196,19.5119301 19.4235925,19.5108466 L19.4235925,19.5869645 L19.4582654,19.5869645 C19.5853091,19.5872354 19.7378158,19.6093123 19.7382221,19.8071917 L19.7382221,21.6816966 C19.7378158,21.8791698 19.5853091,21.901653 19.4582654,21.901653 L19.4235925,21.901653 L19.4235925,21.9775 C19.5614715,21.9758747 19.7638205,21.9634141 19.9342054,21.9634141 C20.1077055,21.9634141 20.3146595,21.9765519 20.4834191,21.9775 L20.4834191,21.9775 Z" id="Fill-32" fill="#0069AA"></path>
                    <path d="M21.9264086,19.4417716 C22.6892129,19.4417716 23.2972081,19.9145965 23.2972081,20.6767236 C23.2972081,21.4997992 22.7066848,22.0468459 21.9448286,22.0468459 C21.1859521,22.0468459 20.6065351,21.5314925 20.6065351,20.7620515 C20.6065351,20.018209 21.1824306,19.4417716 21.9264086,19.4417716 M21.9804496,21.8893279 C22.6748562,21.8893279 22.7959405,21.2769986 22.7959405,20.7552795 C22.7959405,20.2323414 22.5139521,19.5992896 21.9196366,19.5992896 C21.2936278,19.5992896 21.1073963,20.1575779 21.1073963,20.6366331 C21.1073963,21.2769986 21.4010326,21.8893279 21.9804496,21.8893279" id="Fill-33" fill="#0069AA"></path>
                    <path d="M20.590553,20.7620515 C20.5920429,20.0095408 21.1745751,19.4274149 21.9262732,19.4261959 L21.9262732,19.4574828 C21.1906925,19.4574828 20.6217045,20.0260646 20.6208918,20.7620515 C20.6223817,21.5228242 21.1934014,22.0304575 21.9449641,22.0307284 C22.6991001,22.0304575 23.2810906,21.4912664 23.2820387,20.6761819 C23.2813614,19.9235357 22.6829826,19.45816 21.9262732,19.4574828 L21.9262732,19.4261959 C22.6944951,19.4270086 23.3111585,19.9044385 23.3125129,20.6761819 C23.3117003,21.5077903 22.7141341,22.0605254 21.9449641,22.0618798 C21.1795864,22.0605254 20.5920429,21.5400252 20.590553,20.7620515 M21.0916851,20.6366331 C21.0927686,20.1551399 21.2806254,19.5833076 21.9195011,19.5833076 C22.5270899,19.584662 22.8104327,20.2294971 22.8116517,20.7552795 C22.8104327,21.2769986 22.6877231,21.9039555 21.9805851,21.9039555 L21.9805851,21.8736167 C22.6609057,21.8730749 22.7791458,21.2769986 22.7802294,20.7552795 C22.7802294,20.2369464 22.5010852,19.6158135 21.9195011,19.6148654 C21.305682,19.6155426 21.1243264,20.1600158 21.1227011,20.6366331 C21.122972,21.2740189 21.4138995,21.8726686 21.9805851,21.8736167 L21.9805851,21.9039555 C21.3866758,21.9034137 21.0927686,21.280791 21.0916851,20.6366331" id="Fill-34" fill="#0069AA"></path>
                    <path d="M25.7083306,21.2878339 L25.7157799,21.280791 L25.7157799,19.9393823 C25.7157799,19.6457459 25.5111284,19.6028111 25.403859,19.6028111 L25.3259804,19.6028111 L25.3259804,19.4954063 C25.4936565,19.4954063 25.6586237,19.5096276 25.8262998,19.5096276 C25.9733889,19.5096276 26.1200716,19.4954063 26.2668897,19.4954063 L26.2668897,19.6028111 L26.2131196,19.6028111 C26.0631863,19.6028111 25.8942912,19.6313892 25.8942912,20.057216 L25.8942912,21.6852181 C25.8942912,21.8106366 25.8980836,21.9357842 25.9162327,22.0468459 L25.7801144,22.0468459 L23.9370318,19.9926106 L23.9370318,21.4671579 C23.9370318,21.7786725 23.9981158,21.8855355 24.2730612,21.8855355 L24.334416,21.8855355 L24.334416,21.9930757 C24.1804195,21.9930757 24.0268293,21.9791253 23.8729682,21.9791253 C23.7117933,21.9791253 23.5470969,21.9930757 23.3860574,21.9930757 L23.3860574,21.8855355 L23.4363061,21.8855355 C23.6836215,21.8855355 23.7582496,21.7173176 23.7582496,21.4319432 L23.7582496,19.9243483 C23.7582496,19.7241663 23.5942304,19.6028111 23.4323783,19.6028111 L23.3860574,19.6028111 L23.3860574,19.4954063 C23.5220403,19.4954063 23.6614092,19.5096276 23.7976629,19.5096276 C23.9047969,19.5096276 24.008003,19.4954063 24.1158141,19.4954063 L25.7083306,21.2878339" id="Fill-35" fill="#0069AA"></path>
                    <path d="M25.9163681,22.0618798 L25.768331,22.0568685 L23.9524721,20.0332429 L23.9524721,21.4671579 C23.9566708,21.7786725 24.0039397,21.8663029 24.2726549,21.869418 L24.3497209,21.869418 L24.3497209,22.0083806 L24.3345515,22.0083806 C24.1796069,22.0083806 24.0260166,21.9940238 23.8729682,21.9940238 C23.7126059,21.9940238 23.5479095,22.0083806 23.3856511,22.0083806 L23.3710235,22.0083806 L23.3710235,21.869418 L23.4361706,21.869418 C23.6719736,21.8687408 23.739965,21.7167759 23.7428093,21.4318078 L23.7428093,19.9243483 C23.7426739,19.7336472 23.5862394,19.6183868 23.4325137,19.6183868 L23.3710235,19.6183868 L23.3710235,19.4798306 L23.3856511,19.4798306 C23.5228529,19.4798306 23.6623573,19.493781 23.7975275,19.493781 C23.9037133,19.493781 24.0065131,19.4798306 24.1278684,19.4853837 L25.7000687,21.2554635 L25.7000687,19.9393823 C25.6988497,19.6552268 25.5082841,19.6206893 25.403859,19.6183868 L25.309592,19.6183868 L25.309592,19.4798306 L25.3259804,19.4798306 C25.4940628,19.4798306 25.6591655,19.493781 25.8258935,19.493781 C25.9723053,19.493781 26.1183108,19.4798306 26.2670252,19.4798306 L26.2820591,19.4798306 L26.2820591,19.6183868 L26.2129842,19.6183868 C26.0654888,19.6221792 25.913253,19.6357233 25.9102733,20.057216 L25.9102733,21.6852181 C25.9102733,21.8105011 25.9131176,21.9353778 25.930454,22.0442725 L25.9335692,22.0618798 L25.9163681,22.0618798 L25.9163681,22.0618798 Z M25.7801144,22.0307284 L25.8974064,22.0307284 C25.882237,21.9230527 25.8787155,21.8042708 25.8787155,21.6852181 L25.8787155,20.057216 C25.8787155,19.6270551 26.059394,19.5879126 26.2129842,19.5869645 L26.2517203,19.5869645 L26.2517203,19.5108466 C26.1096426,19.5119301 25.9689193,19.5249325 25.8258935,19.5249325 C25.6629578,19.5249325 25.5030019,19.5119301 25.3410143,19.5108466 L25.3410143,19.5869645 L25.403859,19.5869645 C25.5143789,19.5879126 25.7304075,19.6368068 25.7304075,19.9393823 L25.7266152,21.2920326 L25.7197077,21.2989401 L25.7083306,21.3107235 L24.1159495,19.5108466 C24.0100346,19.5108466 23.9058804,19.5249325 23.7975275,19.5249325 C23.6656079,19.5249325 23.5312503,19.5119301 23.4010914,19.5108466 L23.4010914,19.5869645 L23.4325137,19.5869645 C23.6007316,19.5879126 23.7735544,19.7148209 23.7735544,19.9243483 L23.7735544,21.4318078 C23.7735544,21.7181303 23.6936442,21.9009758 23.4361706,21.9019239 L23.4010914,21.901653 L23.4010914,21.9776355 C23.5564423,21.9765519 23.7157211,21.9634141 23.8729682,21.9634141 C24.0222243,21.9634141 24.1705323,21.9765519 24.3188403,21.9776355 L24.3188403,21.9019239 L24.2726549,21.9019239 C23.9918855,21.901653 23.9214561,21.7786725 23.9214561,21.4671579 L23.9214561,19.95252 L25.7801144,22.0307284 L25.7801144,22.0307284 Z M25.7083306,21.2878339 L25.7197077,21.2775404 L25.7083306,21.2878339 L25.7083306,21.2878339 Z M25.7000687,21.280791 L25.7000687,21.2798429 L25.6972244,21.2771341 L25.7000687,21.280791 L25.7000687,21.280791 Z" id="Fill-36" fill="#0069AA"></path>
                    <path d="M26.8417018,21.4815147 C26.8066225,21.6027345 26.7634168,21.6967306 26.7634168,21.7602525 C26.7634168,21.8679282 26.9141628,21.8856709 27.0314548,21.8856709 L27.0714099,21.8856709 L27.0714099,21.9930757 C26.9281132,21.9853556 26.781295,21.9792607 26.6379984,21.9792607 C26.5091939,21.9792607 26.3805248,21.9853556 26.2522621,21.9930757 L26.2522621,21.8856709 L26.2725783,21.8856709 C26.4128952,21.8856709 26.5314062,21.8031873 26.5836865,21.6528477 L27.157415,20.0110306 C27.2036004,19.8782983 27.2683413,19.6995161 27.2889283,19.5667838 C27.4039178,19.5276413 27.5466727,19.4565347 27.6156123,19.4130581 C27.6256349,19.4094012 27.6328133,19.4057443 27.6439194,19.4057443 C27.6543484,19.4057443 27.6611205,19.4057443 27.6684343,19.4169859 C27.6792696,19.4452931 27.6899694,19.4775281 27.7008047,19.5061062 L28.3591839,21.3777668 C28.4018479,21.5026435 28.4450536,21.6349695 28.4917808,21.742916 C28.5347156,21.8432779 28.60975,21.8856709 28.7277192,21.8856709 L28.7497961,21.8856709 L28.7497961,21.9930757 C28.5884857,21.9853556 28.4273108,21.9792607 28.255436,21.9792607 C28.0804461,21.9792607 27.9012575,21.9853556 27.7185475,21.9930757 L27.7185475,21.8856709 L27.7582317,21.8856709 C27.8400382,21.8856709 27.9803551,21.8714496 27.9803551,21.7819231 C27.9803551,21.7357376 27.9482556,21.6390327 27.9083005,21.5240432 L27.7687961,21.1091871 L26.9566913,21.1091871 L26.8417018,21.4815147 L26.8417018,21.4815147 Z M27.3649108,19.896312 L27.3577324,19.896312 L27.0241409,20.9090051 L27.6943035,20.9090051 L27.3649108,19.896312 L27.3649108,19.896312 Z" id="Fill-37" fill="#0069AA"></path>
                    <path d="M28.7481708,22.0083806 C28.5868604,22.0020149 28.4262273,21.9940238 28.2555715,21.9940238 C28.0809879,21.9940238 27.9016639,22.0020149 27.7193601,22.0083806 L27.7035135,22.0091932 L27.7035135,21.8700952 L27.7579609,21.8700952 C27.8411217,21.8700952 27.9643731,21.8508626 27.9645085,21.7819231 C27.9654566,21.7411553 27.9330862,21.6435022 27.8928602,21.5293254 L27.7571482,21.1244919 L26.9672557,21.1244919 L26.8567357,21.4861197 C26.8207084,21.6086939 26.7784508,21.7022837 26.7788571,21.7602525 C26.7788571,21.8478829 26.9130792,21.8700952 27.0313193,21.8700952 L27.0860375,21.8700952 L27.0860375,22.0091932 L27.06992,22.0083806 C26.9270297,22.0020149 26.7804824,21.9940238 26.6379984,21.9940238 C26.5097356,21.9940238 26.3813375,22.0020149 26.2522621,22.0083806 L26.2366864,22.0091932 L26.2366864,21.8700952 L26.2725783,21.8700952 C26.4059877,21.869418 26.5175912,21.7930292 26.5700069,21.6478364 L27.1422456,20.0054775 C27.1881601,19.8730161 27.2527655,19.6950465 27.2841879,19.5525625 C27.396604,19.5135554 27.540307,19.4417716 27.6099237,19.3985659 C27.6191337,19.3950445 27.6291564,19.3907103 27.643784,19.3907103 C27.652994,19.3898977 27.6718203,19.3922002 27.682791,19.4117037 C27.6936263,19.4398755 27.7041907,19.4723813 27.7158387,19.5012303 L28.3738116,21.37262 C28.4168818,21.4979031 28.4595458,21.6300936 28.5060021,21.7368212 C28.5481243,21.8314945 28.6128651,21.8691471 28.7273128,21.8700952 L28.7642883,21.8700952 L28.7642883,22.0091932 L28.7481708,22.0083806 L28.7481708,22.0083806 Z M27.7338523,21.9768228 C27.9108739,21.9703216 28.0849157,21.9634141 28.2555715,21.9634141 C28.4218932,21.9634141 28.577515,21.9703216 28.7336786,21.9765519 L28.7332723,21.901653 L28.7273128,21.901653 C28.6060931,21.9019239 28.5217132,21.8542486 28.4770177,21.74874 C28.4298842,21.640658 28.3873557,21.5077903 28.3444208,21.3829136 L27.6860416,19.510982 C27.6754772,19.482404 27.6641002,19.4504399 27.6557028,19.4256542 C27.6527231,19.4214555 27.652994,19.4214555 27.6508269,19.4214555 L27.643784,19.4214555 C27.6360639,19.4214555 27.6321361,19.4238934 27.6236033,19.4263314 C27.5535802,19.4700788 27.410419,19.5418626 27.3047749,19.5690863 C27.2825626,19.7046628 27.2175508,19.8831742 27.1715009,20.0160419 L26.5984496,21.6579944 C26.5440022,21.8134808 26.4189901,21.9019239 26.2725783,21.901653 L26.2672961,21.901653 L26.2672961,21.9765519 C26.3905475,21.9703216 26.513528,21.9634141 26.6379984,21.9634141 C26.7765546,21.9634141 26.9180906,21.9703216 27.0555633,21.9765519 L27.0555633,21.901653 L27.0313193,21.901653 C26.9149754,21.9000277 26.7519043,21.8877026 26.7472993,21.7602525 C26.7482474,21.6895522 26.7922658,21.5982649 26.827345,21.4770451 L26.8417018,21.4815147 L26.827345,21.4766388 L26.9450433,21.0942886 L27.7790897,21.0942886 L27.9227927,21.5191673 C27.962206,21.6342923 27.9948473,21.7296428 27.9948473,21.7819231 C27.9897006,21.8914949 27.8392255,21.8996214 27.7579609,21.901653 L27.7338523,21.901653 L27.7338523,21.9768228 L27.7338523,21.9768228 Z M27.0027413,20.92431 L27.3463553,19.8804654 L27.3649108,19.8804654 L27.3649108,19.896312 L27.3608475,19.8973955 L27.3649108,19.896312 L27.3649108,19.8804654 L27.3757461,19.8804654 L27.7140779,20.92431 L27.0027413,20.92431 L27.0027413,20.92431 Z M27.045947,20.8931585 L27.6719558,20.8931585 L27.3607121,19.9349127 L27.045947,20.8931585 L27.045947,20.8931585 Z M27.3500122,19.900917 L27.3570552,19.8983436 L27.3500122,19.900917 L27.3500122,19.900917 Z" id="Fill-38" fill="#0069AA"></path>
                    <path d="M29.6510212,21.6421478 C29.6510212,21.7859863 29.750435,21.8283794 29.865289,21.8432779 C30.0117008,21.8539777 30.1728758,21.8539777 30.3379785,21.8356932 C30.4880472,21.8176795 30.6168517,21.7323516 30.6810508,21.6421478 C30.737936,21.563592 30.770171,21.4633656 30.7921125,21.3848097 L30.8955895,21.3848097 C30.8561761,21.588784 30.8061984,21.7893723 30.7632635,21.9930757 C30.4490402,21.9930757 30.1331915,21.9792607 29.8188327,21.9792607 C29.5036613,21.9792607 29.1890316,21.9930757 28.8742664,21.9930757 L28.8742664,21.8855355 L28.9238379,21.8855355 C29.0529133,21.8855355 29.1929594,21.8679282 29.1929594,21.6460756 L29.1929594,19.8071917 C29.1929594,19.6206893 29.0529133,19.6028111 28.9238379,19.6028111 L28.8742664,19.6028111 L28.8742664,19.4954063 C29.0636131,19.4954063 29.2499801,19.5096276 29.4393267,19.5096276 C29.6221722,19.5096276 29.8006836,19.4954063 29.9836645,19.4954063 L29.9836645,19.6028111 L29.8937316,19.6028111 C29.7577488,19.6028111 29.6510212,19.6066035 29.6510212,19.796221 L29.6510212,21.6421478" id="Fill-39" fill="#0069AA"></path>
                    <path d="M30.763399,22.0083806 C30.4478212,22.0083806 30.1326497,21.9940238 29.8188327,21.9940238 C29.5040676,21.9940238 29.189167,22.0083806 28.8735892,22.0083806 L28.8585553,22.0083806 L28.8585553,21.8700952 L28.9238379,21.8700952 C29.0531841,21.8669801 29.1760292,21.8579055 29.1775191,21.6460756 L29.1775191,19.8065145 C29.1760292,19.6323373 29.0537259,19.6206893 28.9238379,19.6183868 L28.8585553,19.6183868 L28.8585553,19.4798306 L28.8735892,19.4798306 C29.0641549,19.4798306 29.2503864,19.493781 29.4390559,19.493781 C29.6212241,19.493781 29.7994646,19.4798306 29.9836645,19.4798306 L29.9980213,19.4798306 L29.9980213,19.6183868 L29.8937316,19.6183868 C29.7549045,19.6219083 29.668764,19.615678 29.6656488,19.796221 L29.6656488,21.6421478 C29.6665969,21.7759636 29.7542273,21.8117201 29.8661017,21.8277022 C29.9290818,21.8320363 29.9957188,21.8343388 30.0645229,21.8343388 C30.1520178,21.8343388 30.2428988,21.8302755 30.3354051,21.8205238 C30.4811397,21.8031873 30.6065582,21.7189429 30.6684548,21.633615 C30.7237147,21.5570908 30.7548662,21.4590315 30.7765368,21.3811528 L30.7795165,21.3693695 L30.9144158,21.3693695 L30.9113007,21.3881958 C30.8708038,21.5927118 30.8215032,21.792352 30.7781621,21.9963263 L30.7753178,22.0083806 L30.763399,22.0083806 L30.763399,22.0083806 Z M30.7502612,21.9775 C30.7917062,21.783142 30.8384333,21.5931182 30.8771695,21.4001146 L30.8033541,21.4001146 C30.7814126,21.4779932 30.7494485,21.574021 30.6933759,21.6518996 C30.626468,21.7445413 30.4940066,21.8320363 30.3387911,21.8512689 C30.2452013,21.8607498 30.1521533,21.8656257 30.0645229,21.8656257 C29.995177,21.8656257 29.9282691,21.8625105 29.863122,21.8579055 C29.746778,21.8451741 29.6342265,21.7951963 29.6343619,21.6421478 L29.6343619,19.796221 C29.6343619,19.597258 29.7601867,19.5869645 29.8937316,19.5869645 L29.9674116,19.5869645 L29.9674116,19.5108466 C29.7912027,19.5119301 29.6171609,19.5253388 29.4390559,19.5253388 C29.2541787,19.5253388 29.0728231,19.5119301 28.8897067,19.5108466 L28.8897067,19.5869645 L28.9238379,19.5869645 C29.0514234,19.5869645 29.207587,19.6093123 29.207587,19.8065145 L29.207587,21.6460756 C29.207587,21.8776799 29.0521006,21.901653 28.9238379,21.901653 L28.8897067,21.901653 L28.8897067,21.9775 C29.1987833,21.9768228 29.5081308,21.9634141 29.8188327,21.9634141 C30.1299409,21.9634141 30.4405074,21.9768228 30.7502612,21.9775 L30.7502612,21.9775 Z" id="Fill-40" fill="#0069AA"></path>
                    <path d="M30.8519775,19.3939609 C31.0678706,19.3939609 31.2289101,19.5597408 31.2289101,19.7715707 C31.2289101,19.9832652 31.0678706,20.1472844 30.8519775,20.1472844 C30.6366261,20.1472844 30.4753157,19.9832652 30.4753157,19.7715707 C30.4753157,19.5597408 30.6366261,19.3939609 30.8519775,19.3939609 L30.8519775,19.3939609 Z M30.8519775,20.0772613 C31.021008,20.0772613 31.1500833,19.9335583 31.1500833,19.7715707 C31.1500833,19.6093123 31.0224978,19.4645257 30.8519775,19.4645257 C30.6824052,19.4645257 30.5534653,19.6093123 30.5534653,19.7715707 C30.5534653,19.9335583 30.6824052,20.0772613 30.8519775,20.0772613 L30.8519775,20.0772613 Z M30.6646624,19.9702628 L30.6646624,19.9519783 C30.7107124,19.9453417 30.7193806,19.9465606 30.7193806,19.9183889 L30.7193806,19.6391093 C30.7193806,19.5998314 30.7154528,19.5862873 30.6661523,19.5884544 L30.6661523,19.5692217 L30.8590204,19.5692217 C30.9252511,19.5692217 30.986335,19.6009149 30.986335,19.6694481 C30.986335,19.7253853 30.9494951,19.7669657 30.8972148,19.7830832 L30.9592468,19.8694947 C30.9880958,19.9085017 31.021008,19.9453417 31.0421368,19.958344 L31.0421368,19.9702628 L30.9688631,19.9702628 C30.9336484,19.9702628 30.902497,19.896312 30.833422,19.7970337 L30.7917062,19.7970337 L30.7917062,19.9219104 C30.7917062,19.9465606 30.8003744,19.9453417 30.8466953,19.9519783 L30.8466953,19.9702628 L30.6646624,19.9702628 L30.6646624,19.9702628 Z M30.7917062,19.7715707 L30.8361308,19.7715707 C30.8847542,19.7715707 30.9072374,19.7348662 30.9072374,19.6754075 C30.9072374,19.6155426 30.8725645,19.5942783 30.8336929,19.5942783 L30.7917062,19.5942783 L30.7917062,19.7715707 L30.7917062,19.7715707 Z" id="Fill-41" fill="#0069AA"></path>
                    <path d="M8.50338247,6.86322077 C8.50338247,3.51633562 11.2165387,0.803179403 14.5632884,0.803179403 C17.9101735,0.803179403 20.6233298,3.51633562 20.6233298,6.86322077 C20.6233298,10.2101059 17.9101735,12.9233976 14.5632884,12.9233976 C11.2165387,12.9233976 8.50338247,10.2101059 8.50338247,6.86322077" id="Fill-42" fill="#F3F3F3"></path>
                    <path d="M18.2281893,6.74389716 C18.2257513,5.19201297 17.2557221,3.86848249 15.8888505,3.34432542 L15.8888505,10.143198 C17.2557221,9.61836373 18.2257513,8.29605222 18.2281893,6.74389716 L18.2281893,6.74389716 Z M13.2813383,10.1418436 L13.2813383,3.34500262 C11.9156857,3.87078499 10.9471463,5.1924193 10.9434894,6.74389716 C10.9471463,8.29496869 11.9156857,9.61646755 13.2813383,10.1418436 L13.2813383,10.1418436 Z M14.5857716,0.997266507 C11.4121156,0.998485477 8.8409017,3.57024118 8.84035994,6.74389716 C8.8409017,9.91714681 11.4121156,12.4884962 14.5857716,12.489038 C17.7594276,12.4884962 20.3311833,9.91714681 20.3319959,6.74389716 C20.3311833,3.57024118 17.7594276,0.998485477 14.5857716,0.997266507 L14.5857716,0.997266507 Z M14.5716857,13.0313441 C11.0988404,13.047868 8.24049128,10.2343499 8.24049128,6.80945065 C8.24049128,3.06640027 11.0988404,0.477443545 14.5716857,0.478120751 L16.1991461,0.478120751 C19.6309528,0.477443545 22.7630283,3.0651813 22.7630283,6.80945065 C22.7630283,10.2331309 19.6309528,13.0313441 16.1991461,13.0313441 L14.5716857,13.0313441 L14.5716857,13.0313441 Z" id="Fill-43" fill="#0069AA"></path>
                </g>
            </g>
        </g>
    </g>
</svg>