<?xml version="1.0" encoding="UTF-8"?>
<svg width="50px" height="50px" viewBox="0 0 50 50" version="1.1" xmlns="http://www.w3.org/2000/svg" xmlns:xlink="http://www.w3.org/1999/xlink">
    <!-- Generator: Sketch 61 (89581) - https://sketch.com -->
    <title>Discover</title>
    <desc>Created with Sketch.</desc>
    <g id="New-screens---zeplin" stroke="none" stroke-width="1" fill="none" fill-rule="evenodd">
        <g id="Discover">
            <circle id="Oval" fill="#F3F3F3" cx="24.5147236" cy="24.5147236" r="24.5147236"></circle>
            <g id="Discover-dark" transform="translate(9.000000, 22.000000)">
                <path d="M2.64120494,4.1252462 C2.32590529,4.39484187 1.92452507,4.51273094 1.2826721,4.51273094 L1.0163357,4.51273094 L1.0163357,1.29553072 L1.2826721,1.29553072 C1.92452507,1.29553072 2.31050555,1.40548495 2.64120494,1.68849428 C2.98256569,1.98094985 3.18769803,2.43210225 3.18769803,2.89874647 C3.18769803,3.3676578 2.98256569,3.8348688 2.64120494,4.1252462 L2.64120494,4.1252462 Z M1.4814866,0.471440793 L0.0242375282,0.471440793 L0.0242375282,5.33719872 L1.47260214,5.33719872 C2.24337851,5.33719872 2.79974322,5.16168759 3.28740142,4.77439177 C3.8666683,4.31568239 4.21039823,3.62308411 4.21039823,2.90554777 C4.21039823,1.4691526 3.08898179,0.471440793 1.4814866,0.471440793 L1.4814866,0.471440793 Z" id="Fill-13" fill="#1A1919"></path>
                <polygon id="Fill-14" fill="#1A1919" points="4.66784927 0.471440793 5.65599879 0.471440793 5.65599879 5.33719872 4.66784927 5.33719872"></polygon>
                <path d="M8.0826413,2.33631738 C7.48619781,2.12698871 7.31186493,1.98756222 7.31186493,1.72457891 C7.31186493,1.41889861 7.62341337,1.18708789 8.05184184,1.18708789 C8.34878028,1.18708789 8.59339911,1.30082061 8.85400997,1.57872898 L9.36990102,0.931094803 C8.94364431,0.572137705 8.43347881,0.390392059 7.87731153,0.390392059 C6.97741433,0.390392059 6.29153392,0.989472563 6.29153392,1.7816342 C6.29153392,2.45420645 6.61038736,2.79540461 7.5408866,3.11941063 C7.92982857,3.24882411 8.12745847,3.33724091 8.22755674,3.39713007 C8.42577894,3.51974225 8.52449518,3.69544231 8.52449518,3.89853645 C8.52449518,4.29433389 8.19675727,4.58527806 7.75371881,4.58527806 C7.28205263,4.58527806 6.90041566,4.35932401 6.67198629,3.93499894 L6.03269995,4.52746707 C6.48975612,5.16829996 7.03763123,5.45470994 7.79241557,5.45470994 C8.82182848,5.45470994 9.54719538,4.7951735 9.54719538,3.85583945 C9.54719538,3.08181459 9.21077045,2.73098126 8.0826413,2.33631738" id="Fill-15" fill="#1A1919"></path>
                <path d="M9.85874382,2.90554777 C9.85874382,4.33646411 11.0324799,5.4452637 12.5434306,5.4452637 C12.9694898,5.4452637 13.3347399,5.36478174 13.7844911,5.16168759 L13.7844911,4.04344177 C13.3870595,4.42563661 13.0381963,4.57639859 12.5868657,4.57639859 C11.5884497,4.57639859 10.8812466,3.88512279 10.8812466,2.89874647 C10.8812466,1.96678049 11.6113519,1.22846242 12.5434306,1.22846242 C13.0137147,1.22846242 13.3730418,1.38791494 13.7844911,1.77577753 L13.7844911,0.658854183 C13.3499422,0.448580894 12.9933792,0.361486566 12.5637661,0.361486566 C11.0615024,0.361486566 9.85874382,1.4920125 9.85874382,2.90554777" id="Fill-16" fill="#1A1919"></path>
                <polyline id="Fill-17" fill="#1A1919" points="21.8184132 3.73813931 20.462447 0.471440793 19.3813068 0.471440793 21.5368745 5.45999983 22.0685602 5.45999983 24.2659836 0.471440793 23.193333 0.471440793 21.8184132 3.73813931"></polyline>
                <polyline id="Fill-18" fill="#1A1919" points="24.7159322 5.33719872 27.5279629 5.33719872 27.5279629 4.51273094 25.7080304 4.51273094 25.7080304 3.19932581 27.4588615 3.19932581 27.4588615 2.37504696 25.7080304 2.37504696 25.7080304 1.29553072 27.5279629 1.29553072 27.5279629 0.471440793 24.7159322 0.471440793 24.7159322 5.33719872"></polyline>
                <path d="M29.4647754,2.70887706 L29.1769189,2.70887706 L29.1769189,1.23715296 L29.4809649,1.23715296 C30.100508,1.23715296 30.432392,1.48596691 30.432392,1.9599792 C30.432392,2.4470273 30.100508,2.70887706 29.4647754,2.70887706 L29.4647754,2.70887706 Z M31.4535127,1.90708026 C31.4535127,0.995896005 30.8004061,0.471440793 29.6554952,0.471440793 L28.182649,0.471440793 L28.182649,5.33719872 L29.1769189,5.33719872 L29.1769189,3.38088253 L29.3058423,3.38088253 L30.6758262,5.33719872 L31.8957615,5.33719872 L30.2959662,3.28642014 C31.0436429,3.14019235 31.4535127,2.65163285 31.4535127,1.90708026 L31.4535127,1.90708026 Z" id="Fill-19" fill="#1A1919"></path>
                <path d="M19.521089,2.91688325 C19.521089,4.31776056 18.3349147,5.45319854 16.8703606,5.45319854 C15.4062014,5.45319854 14.2198297,4.31776056 14.2198297,2.91688325 C14.2198297,1.51581702 15.4062014,0.38019012 16.8703606,0.38019012 C18.3349147,0.38019012 19.521089,1.51581702 19.521089,2.91688325" id="Fill-20" fill="#E6772F"></path>
            </g>
        </g>
    </g>
</svg>