<?xml version="1.0" encoding="UTF-8"?>
<svg width="50px" height="50px" viewBox="0 0 50 50" version="1.1" xmlns="http://www.w3.org/2000/svg" xmlns:xlink="http://www.w3.org/1999/xlink">
    <!-- Generator: Sketch 61 (89581) - https://sketch.com -->
    <title>Maestro</title>
    <desc>Created with Sketch.</desc>
    <g id="New-screens---zeplin" stroke="none" stroke-width="1" fill="none" fill-rule="evenodd">
        <g id="Maestro">
            <circle id="Oval" fill="#F3F3F3" cx="24.5147236" cy="24.5147236" r="24.5147236"></circle>
            <g id="Maestro-dark" transform="translate(10.000000, 15.000000)">
                <path d="M29.9954196,9.44267961 C29.9954196,14.4175808 25.9787848,18.4499995 21.0227986,18.4499995 C16.0678051,18.4499995 12.0506031,14.4175808 12.0506031,9.44267961 C12.0506031,4.46763606 16.0678051,0.435075016 21.0227986,0.435075016 C25.9787848,0.435075016 29.9954196,4.46763606 29.9954196,9.44267961" id="Fill-356" fill="#CC0000"></path>
                <path d="M14.0916787,15.1627697 C13.8439361,14.8611355 13.6157633,14.5424195 13.4082949,14.2087571 L16.5882489,14.2087571 C16.7791256,13.9029948 16.9514251,13.5844212 17.1052893,13.2548868 L12.8915382,13.2548868 C12.7478843,12.9462775 12.6202551,12.6279886 12.5116284,12.3013012 L17.48449,12.3013012 C17.7839933,11.4030888 17.9457989,10.4422434 17.9457989,9.44267961 C17.9457989,8.78816601 17.8763118,8.14988003 17.7444283,7.53522372 L12.2523992,7.53522372 C12.3218862,7.21024448 12.409525,6.89224026 12.5127629,6.58135342 L17.4839227,6.58135342 C17.3748706,6.25466601 17.2479504,5.93651945 17.1044384,5.62791017 L12.892389,5.62791017 C13.0462532,5.29837581 13.2189781,4.9803716 13.4092875,4.67389753 L16.5872562,4.67389753 C16.3799296,4.34108918 16.1511896,4.02294262 15.9038724,3.72088132 L14.0928132,3.72088132 C14.3714704,3.38138264 14.6742354,3.06266668 14.9984137,2.76758041 C13.4058841,1.31805628 11.2922017,0.435075016 8.97374515,0.435075016 C4.01804259,0.435075016 0.000840566015,4.46763606 0.000840566015,9.44267961 C0.000840566015,14.4175808 4.01804259,18.4499995 8.97374515,18.4499995 C11.2923435,18.4499995 13.4061677,17.5670182 14.9984137,16.1180635 C15.3230175,15.8224078 15.6262079,15.5029802 15.9048651,15.1627697 L14.0916787,15.1627697" id="Fill-357" fill="#0066CC"></path>
                <path d="M14.8705008,11.8768211 C14.4870458,11.9787419 14.1162119,12.0285635 13.7242482,12.0277094 C12.4736232,12.0265706 11.8222885,11.4547609 11.8222885,10.3612477 C11.8222885,9.08367933 12.6514533,8.14404378 13.7770016,8.14404378 C14.6976341,8.14404378 15.2852959,8.67087171 15.2852959,9.4963446 C15.2852959,9.7702211 15.2455891,10.0371226 15.1481654,10.4143433 L12.9241545,10.4143433 C12.8450244,10.948431 13.2334428,11.1828772 13.8947042,11.1828772 C14.2907803,11.1828772 14.6488513,11.1114188 15.0456365,10.9512779 L14.8705008,11.8768211 L14.8705008,11.8768211 Z M14.2724868,9.66089826 C14.2724868,9.5803296 14.3961454,9.00695405 13.7524685,8.99456982 C13.3970919,8.99456982 13.1422588,9.23172068 13.0391627,9.66089826 L14.2724868,9.66089826 L14.2724868,9.66089826 Z" id="Fill-359" fill="#000066"></path>
                <path d="M15.6239389,9.41036674 C15.6239389,9.88224855 15.8885569,10.2083666 16.490258,10.451069 C16.9501488,10.6401064 17.022472,10.6949102 17.022472,10.8638766 C17.022472,11.0980382 16.8193997,11.2053681 16.3681593,11.2025212 C16.0293745,11.2001013 15.7200863,11.1586782 15.3552084,11.0571844 L15.1936865,11.9179595 C15.5181484,11.993546 15.9729341,12.0183145 16.3761007,12.0277094 C17.5770921,12.0277094 18.1315704,11.6329799 18.1315704,10.7797493 C18.1315704,10.266729 17.9002778,9.96509477 17.3299168,9.74018579 C16.8531506,9.54887081 16.7972773,9.5077324 16.7972773,9.33449555 C16.7972773,9.13122338 16.9861686,9.02844852 17.3544499,9.02844852 C17.5778012,9.02844852 17.8834023,9.04894655 18.1735462,9.08424872 L18.3362026,8.21877619 C18.04067,8.17763778 17.5924076,8.14461317 17.332753,8.14461317 C16.060431,8.14461317 15.62011,8.71955454 15.6239389,9.41036674" id="Fill-360" fill="#000066"></path>
                <path d="M11.2126461,11.9660729 L10.2796762,11.9660729 L10.3019404,11.5737634 C10.0174689,11.8832267 9.63841,12.0274247 9.12420587,12.0274247 C8.51555609,12.0274247 8.09863382,11.6096349 8.09863382,11.0087863 C8.09863382,10.095485 8.82342624,9.56865711 10.0696551,9.56865711 C10.1977098,9.56865711 10.3606498,9.57833674 10.527986,9.59726895 C10.5625877,9.47499248 10.5719472,9.42232392 10.5719472,9.35599001 C10.5719472,9.10602788 10.3758235,9.01392908 9.85140906,9.01392908 C9.33436873,9.01592194 8.9855154,9.09293191 8.6617625,9.1801909 L8.82115727,8.34233378 C9.38102432,8.19941694 9.74746212,8.14404378 10.1622572,8.14404378 C11.1272763,8.14404378 11.6369425,8.52411148 11.6369425,9.23784162 C11.6450257,9.42844487 11.5790839,9.81079013 11.5457585,9.97819074 C11.5080369,10.2214625 11.2405827,11.6329799 11.2126461,11.9660729 L11.2126461,11.9660729 Z M10.3936916,10.2997536 C10.2755637,10.2880811 10.2240865,10.2845225 10.1431128,10.2845225 C9.50681005,10.2845225 9.18419163,10.4746987 9.18419163,10.8500689 C9.18419163,11.0857963 9.34160105,11.2331259 9.58707467,11.2331259 C10.0442711,11.2331259 10.3744054,10.8492148 10.3936916,10.2997536 L10.3936916,10.2997536 Z" id="Fill-361" fill="#000066"></path>
                <path d="M20.0973447,11.9068564 C19.791318,11.9909837 19.5526513,12.0277094 19.2946984,12.0277094 C18.7232029,12.0277094 18.4110784,11.7344736 18.4110784,11.2123432 C18.3930685,11.0688569 18.5327517,10.4060872 18.5645172,10.2214625 C18.5959991,10.0362685 19.0910588,7.33650667 19.0910588,7.33650667 L20.2014334,7.33650667 L20.03353,8.2298793 L20.6030402,8.2298793 L20.4483251,9.14133005 L19.8762624,9.14133005 C19.8762624,9.14133005 19.5624362,10.7238067 19.5624362,10.844802 C19.5624362,11.0365441 19.6781534,11.1199597 19.9440477,11.1199597 C20.0711098,11.1199597 20.1693843,11.1080025 20.2452528,11.0852269 L20.0973447,11.9068564" id="Fill-362" fill="#000066"></path>
                <path d="M25.0588614,8.14404378 C24.2450122,8.14404378 23.6091348,8.48069551 23.239719,9.04211387 L23.5603521,8.20909657 C22.9695704,7.99144731 22.5886679,8.3021918 22.2444943,8.74375361 C22.2444943,8.74375361 22.1867775,8.81706255 22.1292026,8.8841082 L22.1292026,8.22945225 L21.0866133,8.22945225 C20.9453702,9.38488654 20.6956423,10.5566908 20.5003695,11.7146873 L20.4531467,11.9665 L21.5747243,11.9665 C21.6812238,11.3788897 21.768579,10.9020257 21.8556505,10.5216733 C22.0938918,9.47826647 22.4949313,9.15940818 23.096916,9.30061685 C22.9579419,9.60025824 22.8817898,9.94758603 22.8817898,10.3317818 C22.8817898,11.2645847 23.3860672,12.0277094 24.6389612,12.0277094 C25.9030581,12.0277094 26.8184436,11.3498508 26.8184436,9.8040998 C26.8184436,8.87186632 26.2083757,8.14404378 25.0588614,8.14404378 L25.0588614,8.14404378 Z M24.7324141,11.1210985 C24.336338,11.1272194 24.0961113,10.793557 24.0961113,10.2942021 C24.0961113,9.70260606 24.4465246,9.03400007 25.0096533,9.03400007 C25.4640135,9.03400007 25.6195793,9.39570495 25.6195793,9.78103951 C25.6195793,10.6225977 25.275973,11.1210985 24.7324141,11.1210985 L24.7324141,11.1210985 Z" id="Fill-363" fill="#000066"></path>
                <polyline id="Fill-364" fill="#000066" points="7.57606289 11.9665 6.45902319 11.9665 7.12283718 8.45564236 5.59454764 11.9665 4.57634972 11.9665 4.39029462 8.47628274 3.72435347 11.9665 2.71097711 11.9665 3.57403456 7.39970894 5.31957748 7.39970894 5.46493303 9.94559317 6.57076971 7.39970894 8.45642119 7.39970894 7.57606289 11.9665"></polyline>
                <path d="M15.150718,11.5954002 C14.7675465,11.6974633 14.3965708,11.7472849 14.004749,11.7464308 C12.754124,11.745292 12.1027893,11.17334 12.1027893,10.0799692 C12.1027893,8.80240076 12.9318123,7.86276521 14.0572188,7.86276521 C14.977993,7.86276521 15.5657967,8.38959314 15.5657967,9.21492368 C15.5657967,9.48880019 15.525948,9.75513227 15.4286661,10.1330648 L13.2047971,10.1330648 C13.1255251,10.666583 13.5136599,10.9014563 14.1749213,10.9014563 C14.5709975,10.9014563 14.9293521,10.8299979 15.3259955,10.6695723 L15.150718,11.5954002 L15.150718,11.5954002 Z M14.552704,9.37961969 C14.552704,9.29890868 14.6763625,8.72567548 14.0329692,8.7131489 C13.6775926,8.7131489 13.4227595,8.95029976 13.3193798,9.37961969 L14.552704,9.37961969 L14.552704,9.37961969 Z" id="Fill-366" fill="#FFFFFF"></path>
                <path d="M15.9044397,9.12880347 C15.9044397,9.60082763 16.1689159,9.92666096 16.7704751,10.1696481 C17.2306496,10.3588278 17.302831,10.4134893 17.302831,10.5820286 C17.302831,10.8166172 17.0996168,10.9239472 16.6488019,10.9212426 C16.3095917,10.9186804 16.0003034,10.8772573 15.6357092,10.7757635 L15.4739036,11.6362539 C15.7985074,11.7121251 16.2535766,11.7368935 16.6563179,11.7464308 C17.8573092,11.7464308 18.4120711,11.351559 18.4120711,10.4980436 C18.4120711,9.98530811 18.1806367,9.68338916 17.6102757,9.45876487 C17.1335095,9.26759224 17.0774944,9.22588444 17.0774944,9.05321697 C17.0774944,8.84994481 17.2666694,8.7467429 17.6348089,8.7467429 C17.8581601,8.7467429 18.1636195,8.76766798 18.4539052,8.80297015 L18.6165616,7.93749762 C18.3210289,7.89578982 17.8727666,7.86319225 17.6133955,7.86319225 C16.34079,7.86319225 15.900469,8.43784893 15.9044397,9.12880347" id="Fill-367" fill="#FFFFFF"></path>
                <path d="M11.4931468,11.684652 L10.5598933,11.684652 L10.5824411,11.2923424 C10.2978279,11.6015211 9.91905257,11.7455767 9.40470663,11.7455767 C8.79619866,11.7455767 8.37885096,11.3279293 8.37885096,10.7270807 C8.37885096,9.81406412 9.10378519,9.28723619 10.3500141,9.28723619 C10.4780688,9.28723619 10.640867,9.29705816 10.8084867,9.31527864 C10.8430885,9.19328687 10.8523061,9.14104535 10.8523061,9.07456909 C10.8523061,8.82403757 10.6563243,8.73236581 10.1320516,8.73236581 C9.61486949,8.73450102 9.26601617,8.811511 8.94240507,8.89891233 L9.10137441,8.06091287 C9.66138327,7.91799602 10.0276793,7.86276521 10.442758,7.86276521 C11.407777,7.86276521 11.9173014,8.24240587 11.9173014,8.95642071 C11.9256682,9.14716629 11.859301,9.52879982 11.826401,9.69676982 C11.7882541,9.94004162 11.5209417,11.351559 11.4931468,11.684652 L11.4931468,11.684652 Z M10.6740506,10.0184751 C10.5560644,10.0062332 10.5044455,10.0031015 10.42333,10.0031015 C9.78731081,10.0031015 9.46455058,10.192993 9.46455058,10.5680786 C9.46455058,10.804233 9.62224363,10.9518473 9.86729182,10.9518473 C10.3247718,10.9518473 10.6549062,10.5675092 10.6740506,10.0184751 L10.6740506,10.0184751 Z" id="Fill-368" fill="#FFFFFF"></path>
                <path d="M20.3777036,11.6254355 C20.0715352,11.7097052 19.8330103,11.7464308 19.5749155,11.7464308 C19.00342,11.7464308 18.6915792,11.4530527 18.6915792,10.9309223 C18.6734275,10.787436 18.8131106,10.1246663 18.8447343,9.94004162 C18.8764998,9.75484758 19.3715596,7.05508575 19.3715596,7.05508575 L20.4817924,7.05508575 L20.3140308,7.94817368 L20.8835409,7.94817368 L20.7286841,8.85990913 L20.1567632,8.85990913 C20.1567632,8.85990913 19.8426534,10.4423858 19.8426534,10.5628117 C19.8426534,10.7552655 19.9585124,10.8381117 20.2244067,10.8381117 C20.3514687,10.8381117 20.4496014,10.8267239 20.5258954,10.8036636 L20.3777036,11.6254355" id="Fill-369" fill="#FFFFFF"></path>
                <path d="M25.9002219,9.4990492 C25.9002219,10.3413191 25.5561901,10.8398199 25.0126313,10.8398199 C24.6165551,10.8455138 24.3764703,10.5122784 24.3764703,10.0129235 C24.3764703,9.42132749 24.7268835,8.75257915 25.2898704,8.75257915 C25.7443724,8.75257915 25.9002219,9.11428403 25.9002219,9.4990492 L25.9002219,9.4990492 Z M27.0988025,9.52267888 C27.0988025,8.59058775 26.4885928,7.86276521 25.3393622,7.86276521 C24.0172648,7.86276521 23.1621487,8.74731229 23.1621487,10.0505032 C23.1621487,10.9831638 23.6664262,11.7464308 24.9194619,11.7464308 C26.1835589,11.7464308 27.0988025,11.0685722 27.0988025,9.52267888 L27.0988025,9.52267888 Z" id="Fill-370" fill="#FFFFFF"></path>
                <path d="M21.3668304,7.94774664 C21.2257292,9.10346563 20.9758594,10.2751275 20.7807285,11.4329817 L20.7336475,11.6852214 L21.8550833,11.6852214 C22.2592426,9.44880055 22.3949551,8.81179569 23.2419879,9.03599293 L23.6494089,7.9779243 C23.0584854,7.76027504 22.678292,8.07116188 22.3341184,8.51300838 C22.3651749,8.31414899 22.4236007,8.12212227 22.4095615,7.94774664 L21.3668304,7.94774664" id="Fill-371" fill="#FFFFFF"></path>
                <polyline id="Fill-372" fill="#FFFFFF" points="7.85642184 11.6852214 6.73966577 11.6852214 7.40333795 8.17436379 5.87490659 11.6852214 4.85670868 11.6852214 4.67051176 8.19486182 4.00457061 11.6852214 2.99133606 11.6852214 3.8542517 7.11828802 5.59993643 7.11828802 5.69211312 9.94559317 6.92089932 7.11828802 8.73678015 7.11828802 7.85642184 11.6852214"></polyline>
            </g>
        </g>
    </g>
</svg>