<?xml version="1.0" encoding="UTF-8"?>
<svg width="50px" height="50px" viewBox="0 0 50 50" version="1.1" xmlns="http://www.w3.org/2000/svg" xmlns:xlink="http://www.w3.org/1999/xlink">
    <!-- Generator: Sketch 61 (89581) - https://sketch.com -->
    <title>Mastercard</title>
    <desc>Created with Sketch.</desc>
    <g id="New-screens---zeplin" stroke="none" stroke-width="1" fill="none" fill-rule="evenodd">
        <g id="Mastercard">
            <g id="Group-5-Copy" fill="#F3F3F3">
                <circle id="Oval" cx="24.5147236" cy="24.5147236" r="24.5147236"></circle>
            </g>
            <g id="MasterCard-dark" transform="translate(9.000000, 15.000000)">
                <path d="M18.3904518,9.62813899 C18.3904518,14.6939191 14.284226,18.8 9.21859081,18.8 C4.15281069,18.8 0.0462949999,14.6939191 0.0462949999,9.62813899 C0.0462949999,4.56250381 4.15281069,0.455988123 9.21859081,0.455988123 C14.284226,0.455988123 18.3904518,4.56250381 18.3904518,9.62813899" id="Fill-333" fill="#CC0000"></path>
                <path d="M21.5326299,0.455988123 C19.1621538,0.455988123 17.0030116,1.35509923 15.3749581,2.83008789 C15.0437524,3.13070959 14.7345788,3.45539263 14.4491766,3.8010931 L16.302334,3.8010931 C16.5554128,4.10925209 16.7886338,4.43321038 17.0015621,4.77253315 L13.7498035,4.77253315 C13.5552836,5.08431583 13.3784473,5.40827413 13.2213239,5.7439732 L17.5297518,5.7439732 C17.6770188,6.05836495 17.8066021,6.3821783 17.9182119,6.71497841 L12.8328638,6.71497841 C12.7270519,7.03125448 12.6377641,7.35535772 12.5664498,7.68583867 L18.184336,7.68583867 C18.3188476,8.3120131 18.3904518,8.96166907 18.3904518,9.62813899 C18.3904518,10.6463972 18.2244866,11.6265341 17.9182119,12.5418794 L12.8328638,12.5418794 C12.9444736,12.8743896 13.0740569,13.1986378 13.221034,13.5134644 L17.5297518,13.5134644 C17.3723385,13.8482937 17.1963719,14.1725419 17.0006924,14.4847595 L13.7498035,14.4847595 C13.9618621,14.8230676 14.1955179,15.1474607 14.4491766,15.4551849 L16.3017542,15.4551849 C16.0169318,15.8011752 15.7074683,16.1258583 15.375248,16.42648 C17.0031565,17.9014686 19.1621538,18.8 21.5326299,18.8 C26.5981201,18.8 30.7044908,14.6939191 30.7044908,9.62813899 C30.7044908,4.56293865 26.5981201,0.455988123 21.5326299,0.455988123" id="Fill-334" fill="#FF9900"></path>
                <path d="M7.0766974,10.6323372 C6.97219004,10.6204515 6.92609665,10.6166829 6.8543475,10.6166829 C6.28992082,10.6166829 6.00451863,10.8103331 6.00451863,11.1928503 C6.00451863,11.4283905 6.14381346,11.5781215 6.36123513,11.5781215 C6.76694398,11.5781215 7.05930366,11.1919806 7.0766974,10.6323372 L7.0766974,10.6323372 Z M7.80100148,12.3182249 L6.97566879,12.3182249 L6.99465695,11.9261412 C6.7430276,12.2357496 6.40718358,12.3835964 5.9510329,12.3835964 C5.41153725,12.3835964 5.04148555,11.9623781 5.04148555,11.3502636 C5.04148555,10.4288305 5.68490877,9.89150911 6.78955584,9.89150911 C6.90276006,9.89150911 7.04741794,9.90194535 7.19555458,9.92064361 C7.22628351,9.79569862 7.23440059,9.74264774 7.23440059,9.67524702 C7.23440059,9.42477724 7.06104304,9.33085108 6.5959056,9.33085108 C6.10873609,9.32592285 5.70694083,9.44724415 5.54184531,9.50145462 C5.55228155,9.43854728 5.67998054,8.65046618 5.67998054,8.65046618 C6.17599186,8.50464871 6.50328396,8.45014834 6.87159628,8.45014834 C7.72678821,8.45014834 8.17975004,8.83397007 8.1787354,9.55957868 C8.18047478,9.75424356 8.14815142,9.99355235 8.09814444,10.3092486 C8.01175556,10.8571513 7.82622239,12.0322429 7.80100148,12.3182249 L7.80100148,12.3182249 Z" id="Fill-336" fill="#000066"></path>
                <polyline id="Fill-337" fill="#000066" points="4.62476067 12.3182249 3.62882444 12.3182249 4.19962882 8.74207318 2.92568274 12.3182249 2.24718216 12.3182249 2.16325739 8.76207597 1.56375336 12.3182249 0.631739102 12.3182249 1.41025365 7.66583588 2.84219282 7.66583588 2.92872664 10.2699678 3.80232694 7.66583588 5.39486825 7.66583588 4.62476067 12.3182249"></polyline>
                <path d="M22.7629466,10.6323372 C22.6584393,10.6204515 22.6129257,10.6166829 22.5413215,10.6166829 C21.97646,10.6166829 21.6913477,10.8103331 21.6913477,11.1928503 C21.6913477,11.4283905 21.8300627,11.5781215 22.0480642,11.5781215 C22.4534831,11.5781215 22.7459878,11.1919806 22.7629466,10.6323372 L22.7629466,10.6323372 Z M23.4876856,12.3182249 L22.6626428,12.3182249 L22.681341,11.9261412 C22.4297117,12.2357496 22.0940126,12.3835964 21.6381518,12.3835964 C21.0979314,12.3835964 20.7283146,11.9623781 20.7283146,11.3502636 C20.7283146,10.4288305 21.3720277,9.89150911 22.4763849,9.89150911 C22.5894441,9.89150911 22.7338121,9.90194535 22.8820937,9.92064361 C22.9129676,9.79569862 22.9209397,9.74264774 22.9209397,9.67524702 C22.9209397,9.42477724 22.7475822,9.33085108 22.2824447,9.33085108 C21.7952752,9.32592285 21.3936249,9.44724415 21.2279496,9.50145462 C21.2389656,9.43854728 21.3669545,8.65046618 21.3669545,8.65046618 C21.862676,8.50464871 22.190258,8.45014834 22.5579905,8.45014834 C23.4137622,8.45014834 23.8661442,8.83397007 23.8652745,9.55957868 C23.8670139,9.75424356 23.8349805,9.99355235 23.7846836,10.3092486 C23.6985846,10.8571513 23.5126166,12.0322429 23.4876856,12.3182249 L23.4876856,12.3182249 Z" id="Fill-338" fill="#000066"></path>
                <path d="M12.2262573,12.2606806 C11.9536106,12.3464897 11.7412621,12.3835964 11.5107951,12.3835964 C11.0018834,12.3835964 10.7240185,12.0910917 10.7240185,11.5523208 C10.7169161,11.3850511 10.7972171,10.9451346 10.8604144,10.5439191 C10.9181036,10.1903914 11.2923588,7.9619642 11.2923588,7.9619642 L12.2819173,7.9619642 L12.1663939,8.5346529 L12.7643035,8.5346529 L12.6293571,9.4440553 L12.0294182,9.4440553 C11.9144747,10.1634312 11.7505387,11.0597883 11.7486544,11.1786454 C11.7486544,11.3737452 11.8527269,11.4589745 12.0897165,11.4589745 C12.2032106,11.4589745 12.291049,11.4473786 12.3581598,11.4233173 L12.2262573,12.2606806" id="Fill-339" fill="#000066"></path>
                <path d="M15.2608842,12.2300967 C14.9208367,12.3340242 14.5931097,12.384756 14.24538,12.3835964 C13.1372542,12.3821469 12.5596372,11.8038052 12.5596372,10.6956794 C12.5596372,9.40245528 13.2943776,8.45014834 14.2920532,8.45014834 C15.1079642,8.45014834 15.6293414,8.98326629 15.6293414,9.81903522 C15.6293414,10.0969001 15.5936843,10.3676626 15.5071504,10.7497449 L13.5361505,10.7497449 C13.4696194,11.2986622 13.820683,11.5272449 14.3968504,11.5272449 C14.750668,11.5272449 15.0704228,11.4541912 15.4256898,11.2893855 L15.2608842,12.2300967 L15.2608842,12.2300967 Z M14.7045746,9.98717465 C14.7102275,9.90817811 14.8093718,9.31171797 14.2436406,9.31171797 C13.928814,9.31171797 13.7031303,9.5520414 13.6116683,9.98717465 L14.7045746,9.98717465 L14.7045746,9.98717465 Z" id="Fill-340" fill="#000066"></path>
                <path d="M8.39818635,9.73090696 C8.39818635,10.2090897 8.6301028,10.5391358 9.15626326,10.7871415 C9.55936305,10.9768781 9.62212544,11.0329729 9.62212544,11.204736 C9.62212544,11.4402762 9.44412956,11.5472477 9.05030643,11.5472477 C8.75301853,11.5472477 8.47674805,11.5005745 8.15800787,11.3975166 C8.15800787,11.3975166 8.02740992,12.231836 8.02117716,12.2716967 C8.24744065,12.320689 8.44920797,12.3663476 9.05740887,12.3835964 C10.1079904,12.3835964 10.5932756,11.9835405 10.5932756,11.118927 C10.5932756,10.5991442 10.3903487,10.2940291 9.89143843,10.0644318 C9.47413375,9.87295579 9.42586614,9.83005125 9.42586614,9.65350485 C9.42586614,9.44898352 9.59154146,9.34447617 9.91318059,9.34447617 C10.1087152,9.34447617 10.375564,9.36534865 10.6287878,9.40115075 L10.7704018,8.52363687 C10.5126846,8.48261664 10.1216155,8.45014834 9.89404749,8.45014834 C8.78026871,8.45014834 8.39456265,9.0318238 8.39818635,9.73090696" id="Fill-341" fill="#000066"></path>
                <path d="M20.1037346,8.55001736 C20.380295,8.55001736 20.6385919,8.62191146 20.993569,8.80121187 L21.1566353,7.79150561 C21.010238,7.73410628 20.4969779,7.39768248 20.0621346,7.39768248 C19.3959546,7.39768248 18.8321077,7.72874322 18.4362553,8.27389183 C17.8582035,8.08256076 17.6203442,8.46928145 17.329289,8.85484255 L17.0705573,8.91514083 C17.0901252,8.78831152 17.1079538,8.6623519 17.1023008,8.5346529 L16.1873904,8.5346529 C16.0627353,9.70597595 15.8414,10.8919387 15.6681874,12.0636966 L15.6228188,12.3182249 L16.6190449,12.3182249 C16.7853,11.2377841 16.8761823,10.5462383 16.9315523,10.077767 L17.3066772,9.86991189 C17.3630619,9.66104213 17.5380139,9.5908874 17.8899471,9.59943932 C17.8439986,9.84614045 17.8190676,10.1060318 17.8190676,10.37491 C17.8190676,11.612909 18.4878567,12.3835964 19.5593107,12.3835964 C19.8354362,12.3835964 20.0725708,12.3473594 20.4397236,12.2473455 L20.6142407,11.1871974 C20.2840496,11.3493939 20.013722,11.4257814 19.7686153,11.4257814 C19.1896939,11.4257814 18.8393551,10.9983304 18.8393551,10.2922897 C18.8393551,9.26765384 19.3600075,8.55001736 20.1037346,8.55001736" id="Fill-342" fill="#000066"></path>
                <path d="M28.5341876,7.66583588 L28.3128524,9.00993668 C28.0410753,8.65177071 27.7485706,8.39231417 27.3624297,8.39231417 C26.8600407,8.39231417 26.4027305,8.77323695 26.1032683,9.33418488 C25.6862536,9.24765105 25.2553238,9.10052905 25.2553238,9.10052905 L25.2550339,9.10415274 C25.288227,8.79063069 25.3022869,8.5998794 25.2989531,8.5346529 L24.3841876,8.5346529 C24.2599674,9.70597595 24.0383422,10.8919387 23.8652745,12.0636966 L23.819471,12.3182249 L24.8159871,12.3182249 C24.9504986,11.4450595 25.0532666,10.719161 25.1290743,10.144298 C25.4697016,9.83642895 25.6401602,9.56871039 25.9835415,9.58610413 C25.8312014,9.9545614 25.7423484,10.3786786 25.7423484,10.8138119 C25.7423484,11.7593063 26.2203862,12.3835964 26.9445453,12.3835964 C27.3095238,12.3835964 27.5895629,12.2576367 27.8626446,11.9660018 L27.8156815,12.317935 L28.7578421,12.317935 L29.5163538,7.66583588 L28.5341876,7.66583588 L28.5341876,7.66583588 Z M27.2889412,11.4441898 C26.9500533,11.4441898 26.7784351,11.1928503 26.7784351,10.6982885 C26.7784351,9.9545614 27.0992046,9.4273863 27.5507169,9.4273863 C27.8929386,9.4273863 28.0784718,9.68771252 28.0784718,10.1683594 C28.0784718,10.9184642 27.7523393,11.4441898 27.2889412,11.4441898 L27.2889412,11.4441898 Z" id="Fill-343" fill="#000066"></path>
                <polyline id="Fill-344" fill="#FFFFFF" points="4.91117749 12.0420994 3.91553116 12.0420994 4.48619059 8.46594765 3.21253441 12.0420994 2.53374393 12.0420994 2.44996411 8.48667518 1.85031513 12.0420994 0.918300872 12.0420994 1.69681542 7.39014519 3.12875459 7.39014519 3.16876018 10.2699678 4.13498211 7.39014519 5.68143002 7.39014519 4.91117749 12.0420994"></polyline>
                <path d="M7.36325917,10.3567915 C7.25889676,10.3446159 7.21280337,10.3412821 7.14105421,10.3412821 C6.57662754,10.3412821 6.2910804,10.5346424 6.2910804,10.9168697 C6.2910804,11.15212 6.43052017,11.3027207 6.6480868,11.3027207 C7.0536507,11.3027207 7.34601038,10.9165798 7.36325917,10.3567915 L7.36325917,10.3567915 Z M8.0874183,12.0420994 L7.26252046,12.0420994 L7.28136367,11.6503055 C7.02973431,11.959769 6.6938903,12.1077607 6.23773962,12.1077607 C5.69809902,12.1077607 5.32819227,11.6859627 5.32819227,11.0739931 C5.32819227,10.1524151 5.97176043,9.61581842 7.0764075,9.61581842 C7.18932183,9.61581842 7.33397971,9.62610972 7.4822613,9.64524282 C7.51299023,9.52000794 7.5211073,9.4668121 7.5211073,9.39912149 C7.5211073,9.14879666 7.34774975,9.05559524 6.88261231,9.05559524 C6.39529786,9.04979732 5.99364755,9.17111862 5.82840708,9.22518414 C5.83898826,9.1625667 5.96654231,8.3744856 5.96654231,8.3744856 C6.46269858,8.22895802 6.78999068,8.17402281 7.158303,8.17402281 C8.01334998,8.17402281 8.46616686,8.55827939 8.46544212,9.2835981 C8.46703655,9.47797308 8.43500309,9.71844146 8.38485115,10.033268 C8.29831733,10.5807358 8.11278416,11.7565523 8.0874183,12.0420994 L8.0874183,12.0420994 Z" id="Fill-345" fill="#FFFFFF"></path>
                <path d="M21.4430521,7.51538008 L21.2799859,8.5249414 C20.9244289,8.34622078 20.6668567,8.27389183 20.3905863,8.27389183 C19.6471491,8.27389183 19.1256269,8.992398 19.1256269,10.0171788 C19.1256269,10.7232195 19.4761107,11.1498008 20.0550321,11.1498008 C20.3002838,11.1498008 20.5711912,11.0739931 20.9006575,10.9112168 L20.7257055,11.9713649 C20.3591326,12.0712339 20.1218531,12.1077607 19.8458725,12.1077607 C18.7736937,12.1077607 18.1059193,11.3369284 18.1059193,10.0992193 C18.1059193,8.4360884 19.0290917,7.27375212 20.3486963,7.27375212 C20.7835397,7.27375212 21.2970897,7.45798075 21.4430521,7.51538008" id="Fill-346" fill="#FFFFFF"></path>
                <path d="M23.0493635,10.3567915 C22.9455809,10.3446159 22.8993425,10.3412821 22.8277383,10.3412821 C22.2636015,10.3412821 21.9779094,10.5346424 21.9779094,10.9168697 C21.9779094,11.15212 22.1172043,11.3027207 22.3346259,11.3027207 C22.7400449,11.3027207 23.0326945,10.9165798 23.0493635,10.3567915 L23.0493635,10.3567915 Z M23.7741024,12.0420994 L22.9492046,12.0420994 L22.9679028,11.6503055 C22.7162735,11.959769 22.3804294,12.1077607 21.9247136,12.1077607 C21.3844932,12.1077607 21.0150213,11.6859627 21.0150213,11.0739931 C21.0150213,10.1524151 21.6580097,9.61581842 22.7629466,9.61581842 C22.875861,9.61581842 23.020229,9.62610972 23.1683656,9.64524282 C23.1992395,9.52000794 23.2073566,9.4668121 23.2073566,9.39912149 C23.2073566,9.14879666 23.0344338,9.05559524 22.5690065,9.05559524 C22.0821269,9.04979732 21.6806215,9.17111862 21.5150912,9.22518414 C21.5255274,9.1625667 21.6532264,8.3744856 21.6532264,8.3744856 C22.1493827,8.22895802 22.4763849,8.17402281 22.8446972,8.17402281 C23.6997442,8.17402281 24.1529959,8.55827939 24.1518363,9.2835981 C24.1538656,9.47797308 24.1215422,9.71844146 24.0713903,10.033268 C23.9851464,10.5807358 23.7996132,11.7565523 23.7741024,12.0420994 L23.7741024,12.0420994 Z" id="Fill-347" fill="#FFFFFF"></path>
                <path d="M12.5126742,11.9847001 C12.2403173,12.0705092 12.0276789,12.1077607 11.7975018,12.1077607 C11.2884452,12.1077607 11.0104353,11.8151112 11.0104353,11.27692 C11.0034778,11.1090705 11.0839239,10.6698787 11.147266,10.2682284 C11.2045204,9.91441086 11.5789205,7.68627351 11.5789205,7.68627351 L12.568769,7.68627351 L12.4529557,8.25881726 L12.9611426,8.25881726 L12.8257614,9.16792977 L12.31598,9.16792977 C12.2010364,9.88803036 12.0371005,10.7838077 12.0350712,10.9026649 C12.0350712,11.0983444 12.1395786,11.1829939 12.3762783,11.1829939 C12.4897724,11.1829939 12.5774658,11.1718329 12.6448665,11.1471918 L12.5126742,11.9847001" id="Fill-348" fill="#FFFFFF"></path>
                <path d="M15.5478808,11.9546959 C15.2076883,12.0589133 14.8792366,12.1080506 14.5319418,12.1077607 C13.423671,12.107036 12.8464889,11.5279696 12.8464889,10.4199887 C12.8464889,9.12632975 13.5810843,8.17402281 14.5780351,8.17402281 C15.3948159,8.17402281 15.9159032,8.70714076 15.9159032,9.54392432 C15.9159032,9.82120943 15.8796663,10.0918269 15.7941471,10.4740543 L13.8228572,10.4740543 C13.7560363,11.0229715 14.1075346,11.251989 14.6831223,11.251989 C15.0372297,11.251989 15.3568396,11.1786454 15.7125415,11.013405 L15.5478808,11.9546959 L15.5478808,11.9546959 Z M14.9914262,9.71104912 C14.9967893,9.63190763 15.0963684,9.03573739 14.5307822,9.03573739 C14.2156657,9.03573739 13.989982,9.27649566 13.89823,9.71104912 L14.9914262,9.71104912 L14.9914262,9.71104912 Z" id="Fill-349" fill="#FFFFFF"></path>
                <path d="M8.68460317,9.45478143 C8.68460317,9.93383386 8.91680952,10.2631552 9.44311493,10.5114508 C9.84621472,10.7010425 9.90868721,10.7571373 9.90868721,10.9290454 C9.90868721,11.1648754 9.73083628,11.2712671 9.33672325,11.2712671 C9.03972524,11.2712671 8.76330982,11.2251737 8.44442469,11.1224057 C8.44442469,11.1224057 8.31397169,11.9561454 8.30788388,11.9954262 C8.53400242,12.0449983 8.73591469,12.0902221 9.3438257,12.1077607 C10.3946971,12.1077607 10.8799823,11.7078498 10.8799823,10.8432363 C10.8799823,10.3231636 10.6767655,10.0181935 10.1780002,9.78917597 C9.76055058,9.59712016 9.71257286,9.55465046 9.71257286,9.37781416 C9.71257286,9.17329284 9.87810323,9.06806075 10.2000323,9.06806075 C10.395132,9.06806075 10.6622707,9.08980291 10.9153496,9.12546007 L11.0571085,8.24809113 C10.7992464,8.2073608 10.4084672,8.17402281 10.1807542,8.17402281 C9.06668553,8.17402281 8.68126937,8.75584322 8.68460317,9.45478143" id="Fill-350" fill="#FFFFFF"></path>
                <path d="M29.0444038,12.0420994 L28.1025331,12.0420994 L28.1492063,11.6900212 C27.8759798,11.9818011 27.5960856,12.1077607 27.2311071,12.1077607 C26.5075277,12.1077607 26.0287652,11.4841954 26.0287652,10.5376863 C26.0287652,9.27924967 26.7710428,8.21852178 27.6489915,8.21852178 C28.0351324,8.21852178 28.3274921,8.37622497 28.599849,8.73453589 L28.8207494,7.39014519 L29.8027707,7.39014519 L29.0444038,12.0420994 L29.0444038,12.0420994 Z M27.575358,11.1679193 C28.0393359,11.1679193 28.3648886,10.6424836 28.3648886,9.89310354 C28.3648886,9.41231173 28.1795004,9.15111583 27.8372787,9.15111583 C27.3856214,9.15111583 27.0649969,9.67843587 27.0649969,10.4224528 C27.0649969,10.9175945 27.23676,11.1679193 27.575358,11.1679193 L27.575358,11.1679193 Z" id="Fill-351" fill="#FFFFFF"></path>
                <path d="M24.6710393,8.25881726 C24.5465291,9.42985042 24.3250489,10.6158132 24.1518363,11.787716 L24.1064677,12.0420994 L25.1024039,12.0420994 C25.4586855,9.72844285 25.5443497,9.2769305 26.1032683,9.33331519 C26.1921213,8.85977078 26.3577967,8.44507517 26.4811472,8.23606046 C26.0641324,8.14909179 25.8312014,8.38477689 25.5259413,8.83266554 C25.5502925,8.63887036 25.5942117,8.45087308 25.5859497,8.25881726 L24.6710393,8.25881726" id="Fill-352" fill="#FFFFFF"></path>
                <path d="M16.474387,8.25881726 C16.3492971,9.42985042 16.127527,10.6158132 15.9546043,11.787716 L15.9093805,12.0420994 L16.9056067,12.0420994 C17.2620333,9.72844285 17.3474075,9.2769305 17.9054565,9.33331519 C17.9948893,8.85977078 18.1608545,8.44507517 18.2839152,8.23606046 C17.8673352,8.14909179 17.6339693,8.38477689 17.329289,8.83266554 C17.3533504,8.63887036 17.3975595,8.45087308 17.3888626,8.25881726 L16.474387,8.25881726" id="Fill-353" fill="#FFFFFF"></path>
            </g>
        </g>
    </g>
</svg>