<?xml version="1.0" encoding="UTF-8"?>
<svg width="50px" height="50px" viewBox="0 0 50 50" version="1.1" xmlns="http://www.w3.org/2000/svg" xmlns:xlink="http://www.w3.org/1999/xlink">
    <!-- Generator: Sketch 61 (89581) - https://sketch.com -->
    <title>Visa</title>
    <desc>Created with Sketch.</desc>
    <g id="New-screens---zeplin" stroke="none" stroke-width="1" fill="none" fill-rule="evenodd">
        <g id="Visa">
            <circle id="Oval" fill="#F3F3F3" cx="24.5147236" cy="24.5147236" r="24.5147236"></circle>
            <g id="visa" transform="translate(10.006010, 20.012019)">
                <polyline id="Fill-1" fill="#304D8F" points="11.0066106 8.76997313 12.5313359 0.2942944 14.9137191 0.2942944 13.4366415 8.76997313 11.0066106 8.76997313"></polyline>
                <polyline id="Fill-2" fill="#333473" points="11.0066106 8.76997313 12.9601648 0.2942944 14.9137191 0.2942944 13.4366415 8.76997313 11.0066106 8.76997313"></polyline>
                <path d="M22.0608688,0.388468609 C21.5843922,0.200120192 20.8220295,0.011771776 19.8690762,0.011771776 C17.486693,0.011771776 15.7713771,1.18894938 15.7713771,2.88408512 C15.7713771,4.15543693 16.9625687,4.81465639 17.915522,5.23844033 C18.8684753,5.66222426 19.1543613,5.94474689 19.1543613,6.32144372 C19.1543613,6.88648897 18.3919986,7.1690116 17.7249313,7.1690116 C16.771978,7.1690116 16.2478537,7.02775028 15.4378434,6.69814055 L15.1043098,6.55687924 L14.7707761,8.48745051 C15.3425481,8.72288603 16.3907967,8.95832155 17.486693,8.95832155 C20.0120192,8.95832155 21.6796875,7.78114395 21.6796875,5.99183399 C21.6796875,5.00300481 21.0602679,4.24961114 19.6308379,3.63747879 C18.7731799,3.21369485 18.2490556,2.97825933 18.2490556,2.5544754 C18.2490556,2.17777856 18.6778846,1.80108173 19.6308379,1.80108173 C20.4408482,1.80108173 21.0126202,1.94234304 21.4414492,2.13069146 L21.6796875,2.22486567 L22.0608688,0.388468609" id="Fill-3" fill="#304D8F"></path>
                <path d="M22.0608688,0.388468609 C21.5843922,0.200120192 20.8220295,0.011771776 19.8690762,0.011771776 C17.486693,0.011771776 16.200206,1.18894938 16.200206,2.88408512 C16.200206,4.15543693 16.9625687,4.81465639 17.915522,5.23844033 C18.8684753,5.66222426 19.1543613,5.94474689 19.1543613,6.32144372 C19.1543613,6.88648897 18.3919986,7.1690116 17.7249313,7.1690116 C16.771978,7.1690116 16.2478537,7.02775028 15.4378434,6.69814055 L15.1043098,6.55687924 L14.7707761,8.48745051 C15.3425481,8.72288603 16.3907967,8.95832155 17.486693,8.95832155 C20.0120192,8.95832155 21.6796875,7.78114395 21.6796875,5.99183399 C21.6796875,5.00300481 21.0602679,4.24961114 19.6308379,3.63747879 C18.7731799,3.21369485 18.2490556,2.97825933 18.2490556,2.5544754 C18.2490556,2.17777856 18.6778846,1.80108173 19.6308379,1.80108173 C20.4408482,1.80108173 21.0126202,1.94234304 21.4414492,2.13069146 L21.6796875,2.22486567 L22.0608688,0.388468609" id="Fill-4" fill="#333473"></path>
                <path d="M25.0626717,5.94474689 C25.2056147,5.52096295 26.015625,3.44913037 26.015625,3.44913037 C26.015625,3.44913037 26.2062157,2.93117223 26.3491587,2.6015625 L26.4921016,3.40204327 C26.4921016,3.40204327 26.9685783,5.52096295 27.0638736,5.99183399 L25.0626717,5.99183399 L25.0626717,5.94474689 Z M26.158568,0.2942944 C25.586796,0.2942944 25.157967,0.341381505 24.9197287,0.906426753 L21.3461538,8.76997313 L23.9191277,8.76997313 L24.3956044,7.35736001 L27.4450549,7.35736001 L27.7309409,8.76997313 L30.0180288,8.76997313 L28.0168269,0.2942944 L26.158568,0.2942944 L26.158568,0.2942944 Z" id="Fill-5" fill="#304D8F"></path>
                <path d="M25.0626717,5.94474689 C25.2532624,5.47387585 26.015625,3.44913037 26.015625,3.44913037 C26.015625,3.44913037 26.2062157,2.93117223 26.3491587,2.6015625 L26.4921016,3.40204327 C26.4921016,3.40204327 26.9685783,5.52096295 27.0638736,5.99183399 L25.0626717,5.99183399 L25.0626717,5.94474689 Z M26.73034,0.2942944 C26.158568,0.2942944 25.729739,0.341381505 25.4915007,0.906426753 L21.3461538,8.76997313 L23.9191277,8.76997313 L24.3956044,7.35736001 L27.4450549,7.35736001 L27.7309409,8.76997313 L30.0180288,8.76997313 L28.0168269,0.2942944 L26.73034,0.2942944 L26.73034,0.2942944 Z" id="Fill-6" fill="#333473"></path>
                <path d="M6.62302541,6.22726951 L6.38478709,5.00300481 C5.9559581,3.59039169 4.57417582,2.03651725 3.04945055,1.28312359 L5.19359547,8.81706024 L7.76656937,8.81706024 L11.6260302,0.341381505 L9.05305632,0.341381505 L6.62302541,6.22726951" id="Fill-7" fill="#304D8F"></path>
                <path d="M6.62302541,6.22726951 L6.38478709,5.00300481 C5.9559581,3.59039169 4.57417582,2.03651725 3.04945055,1.28312359 L5.19359547,8.81706024 L7.76656937,8.81706024 L11.6260302,0.341381505 L9.52953297,0.341381505 L6.62302541,6.22726951" id="Fill-8" fill="#333473"></path>
                <path d="M0,0.2942944 L0.428828984,0.388468609 C3.47827953,1.09477517 5.57477679,2.88408512 6.38478709,5.00300481 L5.52712912,1.00060096 C5.38418613,0.435555713 4.95535714,0.2942944 4.43123283,0.2942944 L0,0.2942944" id="Fill-9" fill="#EFA639"></path>
                <path d="M0,0.2942944 L0,0.2942944 C3.04945055,1.00060096 5.57477679,2.83699802 6.38478709,4.9559177 L5.57477679,1.61273331 C5.43183379,1.04768807 4.95535714,0.718078337 4.43123283,0.718078337 L0,0.2942944" id="Fill-10" fill="#E9833A"></path>
                <path d="M0,0.2942944 L0,0.2942944 C3.04945055,1.00060096 5.57477679,2.83699802 6.38478709,4.9559177 L5.81301511,3.11952064 C5.67007212,2.5544754 5.47948146,1.98943015 4.81241415,1.75399463 L0,0.2942944" id="Fill-11" fill="#E46A34"></path>
                <path d="M9.00540865,5.94474689 L7.38538805,4.34378535 L6.62302541,6.13309531 L6.43243475,4.9559177 C6.00360577,3.54330458 4.62182349,1.98943015 3.09709821,1.23603648 L5.24124313,8.76997313 L7.81421703,8.76997313 L9.00540865,5.94474689" id="Fill-12" fill="#1D1B35"></path>
                <polyline id="Fill-13" fill="#1D1B35" points="13.4366415 8.76997313 11.3877919 6.69814055 11.0066106 8.76997313 13.4366415 8.76997313"></polyline>
                <path d="M18.9161229,5.85057268 L18.9161229,5.85057268 C19.1067136,6.0389211 19.2020089,6.18018241 19.1543613,6.36853083 C19.1543613,6.93357607 18.3919986,7.2160987 17.7249313,7.2160987 C16.771978,7.2160987 16.2478537,7.07483739 15.4378434,6.74522766 L15.1043098,6.60396635 L14.7707761,8.53453761 C15.3425481,8.76997313 16.3907967,9.00540865 17.486693,9.00540865 C19.0114183,9.00540865 20.2502576,8.58162472 20.9649725,7.82823105 L18.9161229,5.85057268" id="Fill-14" fill="#1D1B35"></path>
                <path d="M21.6796875,8.76997313 L23.9191277,8.76997313 L24.3956044,7.35736001 L27.4450549,7.35736001 L27.7309409,8.76997313 L30.0180288,8.76997313 L29.2080185,5.33261454 L26.3491587,2.6015625 L26.4921016,3.35495617 C26.4921016,3.35495617 26.9685783,5.47387585 27.0638736,5.94474689 L25.0626717,5.94474689 C25.2532624,5.47387585 26.015625,3.44913037 26.015625,3.44913037 C26.015625,3.44913037 26.2062157,2.93117223 26.3491587,2.6015625" id="Fill-15" fill="#1D1B35"></path>
            </g>
        </g>
    </g>
</svg>